<svg width="783" height="256" viewBox="0 0 783 256" fill="none" xmlns="http://www.w3.org/2000/svg">
<g filter="url(#filter0_d_155_23)">
<mask id="path-1-inside-1_155_23" fill="white">
<path fill-rule="evenodd" clip-rule="evenodd" d="M16 70.0027C9.37258 70.0027 4 75.3753 4 82.0027V166.811C4 173.438 9.37258 178.811 16 178.811H121.5C128.127 178.811 133.5 173.438 133.5 166.811V82.0027C133.5 75.3753 128.127 70.0027 121.5 70.0027H16ZM661.241 70.0027C654.614 70.0027 649.241 75.3753 649.241 82.0027V166.811C649.241 173.438 654.614 178.811 661.241 178.811H766.741C773.369 178.811 778.741 173.438 778.741 166.811V82.0027C778.741 75.3753 773.369 70.0027 766.741 70.0027H661.241Z"/>
</mask>
<path fill-rule="evenodd" clip-rule="evenodd" d="M16 70.0027C9.37258 70.0027 4 75.3753 4 82.0027V166.811C4 173.438 9.37258 178.811 16 178.811H121.5C128.127 178.811 133.5 173.438 133.5 166.811V82.0027C133.5 75.3753 128.127 70.0027 121.5 70.0027H16ZM661.241 70.0027C654.614 70.0027 649.241 75.3753 649.241 82.0027V166.811C649.241 173.438 654.614 178.811 661.241 178.811H766.741C773.369 178.811 778.741 173.438 778.741 166.811V82.0027C778.741 75.3753 773.369 70.0027 766.741 70.0027H661.241Z" fill="url(#paint0_linear_155_23)"/>
<path d="M7 82.0027C7 77.0321 11.0294 73.0027 16 73.0027V67.0027C7.71573 67.0027 1 73.7184 1 82.0027H7ZM7 166.811V82.0027H1V166.811H7ZM16 175.811C11.0294 175.811 7 171.781 7 166.811H1C1 175.095 7.71572 181.811 16 181.811V175.811ZM121.5 175.811H16V181.811H121.5V175.811ZM130.5 166.811C130.5 171.781 126.471 175.811 121.5 175.811V181.811C129.784 181.811 136.5 175.095 136.5 166.811H130.5ZM130.5 82.0027V166.811H136.5V82.0027H130.5ZM121.5 73.0027C126.471 73.0027 130.5 77.0321 130.5 82.0027H136.5C136.5 73.7184 129.784 67.0027 121.5 67.0027V73.0027ZM16 73.0027H121.5V67.0027H16V73.0027ZM652.241 82.0027C652.241 77.0321 656.271 73.0027 661.241 73.0027V67.0027C652.957 67.0027 646.241 73.7184 646.241 82.0027H652.241ZM652.241 166.811V82.0027H646.241V166.811H652.241ZM661.241 175.811C656.271 175.811 652.241 171.781 652.241 166.811H646.241C646.241 175.095 652.957 181.811 661.241 181.811V175.811ZM766.741 175.811H661.241V181.811H766.741V175.811ZM775.741 166.811C775.741 171.781 771.712 175.811 766.741 175.811V181.811C775.026 181.811 781.741 175.095 781.741 166.811H775.741ZM775.741 82.0027V166.811H781.741V82.0027H775.741ZM766.741 73.0027C771.712 73.0027 775.741 77.0321 775.741 82.0027H781.741C781.741 73.7184 775.026 67.0027 766.741 67.0027V73.0027ZM661.241 73.0027H766.741V67.0027H661.241V73.0027Z" fill="url(#paint1_linear_155_23)" mask="url(#path-1-inside-1_155_23)"/>
<mask id="path-3-inside-2_155_23" fill="white">
<path fill-rule="evenodd" clip-rule="evenodd" d="M69.019 101.551C56.3959 101.551 46.1628 111.784 46.1628 124.407C46.1628 137.03 56.3959 147.263 69.019 147.263H120.432C133.055 147.263 143.288 137.03 143.288 124.407C143.288 111.784 133.055 101.551 120.432 101.551H69.019ZM662.31 101.551C649.687 101.551 639.454 111.784 639.454 124.407C639.454 137.03 649.687 147.263 662.31 147.263H713.722C726.346 147.263 736.579 137.03 736.579 124.407C736.579 111.784 726.346 101.551 713.722 101.551H662.31Z"/>
</mask>
<path fill-rule="evenodd" clip-rule="evenodd" d="M69.019 101.551C56.3959 101.551 46.1628 111.784 46.1628 124.407C46.1628 137.03 56.3959 147.263 69.019 147.263H120.432C133.055 147.263 143.288 137.03 143.288 124.407C143.288 111.784 133.055 101.551 120.432 101.551H69.019ZM662.31 101.551C649.687 101.551 639.454 111.784 639.454 124.407C639.454 137.03 649.687 147.263 662.31 147.263H713.722C726.346 147.263 736.579 137.03 736.579 124.407C736.579 111.784 726.346 101.551 713.722 101.551H662.31Z" fill="url(#paint2_linear_155_23)"/>
<path d="M47.1628 124.407C47.1628 112.336 56.9482 102.551 69.019 102.551V100.551C55.8436 100.551 45.1628 111.231 45.1628 124.407H47.1628ZM69.019 146.263C56.9482 146.263 47.1628 136.478 47.1628 124.407H45.1628C45.1628 137.582 55.8436 148.263 69.019 148.263V146.263ZM120.432 146.263H69.019V148.263H120.432V146.263ZM142.288 124.407C142.288 136.478 132.503 146.263 120.432 146.263V148.263C133.607 148.263 144.288 137.582 144.288 124.407H142.288ZM120.432 102.551C132.503 102.551 142.288 112.336 142.288 124.407H144.288C144.288 111.231 133.607 100.551 120.432 100.551V102.551ZM69.019 102.551H120.432V100.551H69.019V102.551ZM640.454 124.407C640.454 112.336 650.239 102.551 662.31 102.551V100.551C649.134 100.551 638.454 111.231 638.454 124.407H640.454ZM662.31 146.263C650.239 146.263 640.454 136.478 640.454 124.407H638.454C638.454 137.582 649.134 148.263 662.31 148.263V146.263ZM713.722 146.263H662.31V148.263H713.722V146.263ZM735.579 124.407C735.579 136.478 725.793 146.263 713.722 146.263V148.263C726.898 148.263 737.579 137.582 737.579 124.407H735.579ZM713.722 102.551C725.793 102.551 735.579 112.336 735.579 124.407H737.579C737.579 111.231 726.898 100.551 713.722 100.551V102.551ZM662.31 102.551H713.722V100.551H662.31V102.551Z" fill="url(#paint3_linear_155_23)" mask="url(#path-3-inside-2_155_23)"/>
<mask id="path-5-inside-3_155_23" fill="white">
<path fill-rule="evenodd" clip-rule="evenodd" d="M107.785 102.377L114.445 102.593C116.588 102.662 120.701 111.695 120.701 113.838V113.838V135.619V135.619C120.701 138.562 117.461 146.201 114.52 146.296L107.785 146.514C85.5036 147.236 74.3584 173.796 91.0192 186.467L134.351 219.423C135.208 220.075 136.099 220.653 137.018 221.161C141.983 223.902 147.399 226.789 153.013 227.598C153.671 227.693 154.344 227.742 155.029 227.742H627.712C628.277 227.742 628.834 227.709 629.381 227.644C635.172 226.956 640.808 224.058 645.955 221.316C646.975 220.772 647.963 220.142 648.909 219.423L692.241 186.467C708.902 173.796 697.757 147.236 675.476 146.514L668.301 146.281C666.316 146.217 662.041 136.961 662.041 134.975V134.975V113.838V113.838C662.041 111.655 666.112 102.68 668.295 102.609L675.476 102.377C697.757 101.655 708.903 75.0952 692.242 62.4239L648.91 29.4677C648.008 28.7821 647.068 28.1773 646.098 27.6511C640.932 24.8493 635.263 21.889 629.429 21.1754C628.867 21.1066 628.294 21.0712 627.712 21.0712H155.029C154.327 21.0712 153.637 21.1229 152.962 21.2227C147.305 22.0597 141.857 25.0094 136.872 27.8118C136.005 28.2994 135.162 28.8508 134.351 29.4677L91.0192 62.4239C74.3584 75.0952 85.5036 101.655 107.785 102.377Z"/>
</mask>
<path fill-rule="evenodd" clip-rule="evenodd" d="M107.785 102.377L114.445 102.593C116.588 102.662 120.701 111.695 120.701 113.838V113.838V135.619V135.619C120.701 138.562 117.461 146.201 114.52 146.296L107.785 146.514C85.5036 147.236 74.3584 173.796 91.0192 186.467L134.351 219.423C135.208 220.075 136.099 220.653 137.018 221.161C141.983 223.902 147.399 226.789 153.013 227.598C153.671 227.693 154.344 227.742 155.029 227.742H627.712C628.277 227.742 628.834 227.709 629.381 227.644C635.172 226.956 640.808 224.058 645.955 221.316C646.975 220.772 647.963 220.142 648.909 219.423L692.241 186.467C708.902 173.796 697.757 147.236 675.476 146.514L668.301 146.281C666.316 146.217 662.041 136.961 662.041 134.975V134.975V113.838V113.838C662.041 111.655 666.112 102.68 668.295 102.609L675.476 102.377C697.757 101.655 708.903 75.0952 692.242 62.4239L648.91 29.4677C648.008 28.7821 647.068 28.1773 646.098 27.6511C640.932 24.8493 635.263 21.889 629.429 21.1754C628.867 21.1066 628.294 21.0712 627.712 21.0712H155.029C154.327 21.0712 153.637 21.1229 152.962 21.2227C147.305 22.0597 141.857 25.0094 136.872 27.8118C136.005 28.2994 135.162 28.8508 134.351 29.4677L91.0192 62.4239C74.3584 75.0952 85.5036 101.655 107.785 102.377Z" fill="url(#paint4_linear_155_23)"/>
<path d="M107.785 102.377L107.623 107.374L107.623 107.374L107.785 102.377ZM107.785 146.514L107.623 141.517L107.623 141.517L107.785 146.514ZM91.0192 186.467L94.046 182.487L94.046 182.487L91.0192 186.467ZM134.351 219.423L137.378 215.444L137.378 215.444L134.351 219.423ZM648.909 219.423L645.882 215.443L645.882 215.443L648.909 219.423ZM692.241 186.467L689.214 182.487L689.214 182.487L692.241 186.467ZM675.476 146.514L675.638 141.516L675.638 141.516L675.476 146.514ZM675.476 102.377L675.638 107.374L675.638 107.374L675.476 102.377ZM692.242 62.4239L695.269 58.4441L695.269 58.4441L692.242 62.4239ZM648.91 29.4677L651.937 25.488L651.937 25.488L648.91 29.4677ZM134.351 29.4677L137.378 33.4475L137.378 33.4475L134.351 29.4677ZM91.0192 62.4239L87.9924 58.4441L87.9924 58.4441L91.0192 62.4239ZM668.295 102.609L668.133 97.612L668.133 97.612L668.295 102.609ZM646.098 27.6511L643.714 32.0463L646.098 27.6511ZM629.381 227.644L628.791 222.679L629.381 227.644ZM645.955 221.316L648.306 225.728L645.955 221.316ZM137.018 221.161L134.601 225.538L137.018 221.161ZM153.013 227.598L153.727 222.65L153.013 227.598ZM114.52 146.296L114.359 141.299L114.52 146.296ZM668.301 146.281L668.139 151.279L668.301 146.281ZM114.607 97.5952L107.947 97.3794L107.623 107.374L114.283 107.59L114.607 97.5952ZM125.701 135.619V113.838H115.701V135.619H125.701ZM107.947 151.512L114.682 151.293L114.359 141.299L107.623 141.517L107.947 151.512ZM94.046 182.487C87.813 177.747 86.657 170.503 89.4093 163.944C92.1906 157.316 98.8837 151.805 107.947 151.512L107.623 141.517C94.4046 141.945 84.3846 150.075 80.1882 160.075C75.9628 170.144 77.5646 182.516 87.9924 190.447L94.046 182.487ZM137.378 215.444L94.046 182.487L87.9924 190.447L131.324 223.403L137.378 215.444ZM139.435 216.783C138.726 216.392 138.039 215.946 137.378 215.444L131.324 223.403C132.376 224.203 133.472 224.914 134.601 225.538L139.435 216.783ZM155.029 222.742C154.584 222.742 154.149 222.711 153.727 222.65L152.299 232.547C153.193 232.676 154.105 232.742 155.029 232.742V222.742ZM627.712 222.742H155.029V232.742H627.712V222.742ZM628.791 222.679C628.439 222.721 628.079 222.742 627.712 222.742V232.742C628.475 232.742 629.229 232.697 629.971 232.609L628.791 222.679ZM645.882 215.443C645.152 215.998 644.391 216.483 643.603 216.903L648.306 225.728C649.56 225.06 650.774 224.286 651.935 223.402L645.882 215.443ZM689.214 182.487L645.882 215.443L651.935 223.402L695.268 190.447L689.214 182.487ZM675.314 151.511C684.377 151.805 691.07 157.316 693.851 163.944C696.603 170.503 695.447 177.747 689.214 182.487L695.268 190.447C705.696 182.516 707.298 170.144 703.072 160.075C698.876 150.075 688.856 141.945 675.638 141.516L675.314 151.511ZM668.139 151.279L675.314 151.511L675.638 141.516L668.463 141.284L668.139 151.279ZM657.041 113.838V134.975H667.041V113.838H657.041ZM675.314 97.3794L668.133 97.612L668.457 107.607L675.638 107.374L675.314 97.3794ZM689.215 66.4036C695.448 71.1442 696.604 78.3879 693.852 84.9467C691.07 91.5747 684.377 97.0858 675.314 97.3794L675.638 107.374C688.856 106.946 698.876 98.8162 703.073 88.8161C707.298 78.7467 705.696 66.375 695.269 58.4441L689.215 66.4036ZM645.883 33.4475L689.215 66.4036L695.269 58.4441L651.937 25.488L645.883 33.4475ZM643.714 32.0463C644.463 32.4521 645.187 32.9183 645.883 33.4475L651.937 25.488C650.829 24.6459 649.674 23.9026 648.482 23.2559L643.714 32.0463ZM627.712 26.0712C628.09 26.0712 628.461 26.0942 628.822 26.1385L630.036 16.2124C629.273 16.119 628.497 16.0712 627.712 16.0712V26.0712ZM155.029 26.0712H627.712V16.0712H155.029V26.0712ZM153.694 26.1688C154.127 26.1047 154.573 26.0712 155.029 26.0712V16.0712C154.081 16.0712 153.146 16.141 152.23 16.2765L153.694 26.1688ZM137.378 33.4475C138.004 32.9713 138.653 32.5462 139.322 32.1703L134.422 23.4533C133.356 24.0526 132.321 24.7303 131.324 25.488L137.378 33.4475ZM94.046 66.4036L137.378 33.4475L131.324 25.488L87.9924 58.4441L94.046 66.4036ZM107.947 97.3794C98.8837 97.0858 92.1906 91.5747 89.4093 84.9467C86.657 78.3879 87.813 71.1442 94.046 66.4036L87.9924 58.4441C77.5646 66.375 75.9628 78.7467 80.1882 88.8161C84.3846 98.8162 94.4046 106.946 107.623 107.374L107.947 97.3794ZM152.23 16.2765C145.523 17.2691 139.301 20.7103 134.422 23.4533L139.322 32.1703C144.413 29.3084 149.088 26.8504 153.694 26.1688L152.23 16.2765ZM667.041 113.838C667.041 114.195 666.981 114.297 667.066 113.964C667.13 113.712 667.243 113.344 667.413 112.873C667.753 111.934 668.244 110.797 668.801 109.707C669.373 108.589 669.923 107.697 670.344 107.156C670.56 106.878 670.626 106.844 670.525 106.925C670.522 106.928 669.781 107.564 668.457 107.607L668.133 97.612C666.263 97.6726 664.917 98.6049 664.274 99.1199C663.532 99.7139 662.922 100.41 662.45 101.017C661.493 102.247 660.616 103.749 659.897 105.156C659.163 106.592 658.501 108.112 658.009 109.472C657.607 110.583 657.041 112.312 657.041 113.838H667.041ZM648.482 23.2559C643.431 20.5165 636.956 17.0587 630.036 16.2124L628.822 26.1385C633.57 26.7192 638.433 29.182 643.714 32.0463L648.482 23.2559ZM114.283 107.59C113.557 107.566 113.017 107.363 112.716 107.22C112.414 107.076 112.234 106.935 112.177 106.889C112.08 106.81 112.148 106.848 112.368 107.132C112.793 107.683 113.348 108.587 113.924 109.714C114.486 110.812 114.983 111.957 115.327 112.899C115.499 113.372 115.613 113.74 115.678 113.991C115.765 114.327 115.701 114.213 115.701 113.838H125.701C125.701 112.928 125.508 112.062 125.361 111.494C125.193 110.84 124.969 110.151 124.722 109.474C124.227 108.118 123.562 106.597 122.828 105.161C122.108 103.753 121.233 102.252 120.285 101.023C119.817 100.417 119.213 99.721 118.481 99.1262C117.856 98.6193 116.502 97.6566 114.607 97.5952L114.283 107.59ZM629.971 232.609C636.838 231.793 643.277 228.408 648.306 225.728L643.603 216.903C638.339 219.708 633.507 222.119 628.791 222.679L629.971 232.609ZM134.601 225.538C139.458 228.22 145.644 231.587 152.299 232.547L153.727 222.65C149.153 221.99 144.509 219.585 139.435 216.783L134.601 225.538ZM115.701 135.619C115.701 135.567 115.703 135.674 115.646 135.975C115.592 136.255 115.502 136.615 115.371 137.039C115.107 137.895 114.72 138.857 114.267 139.739C113.797 140.653 113.357 141.281 113.056 141.607C112.604 142.096 113.04 141.341 114.359 141.299L114.682 151.293C117.471 151.203 119.415 149.458 120.398 148.396C121.531 147.171 122.452 145.687 123.16 144.312C123.884 142.904 124.491 141.398 124.926 139.992C125.333 138.674 125.701 137.089 125.701 135.619H115.701ZM668.463 141.284C669.283 141.31 669.879 141.56 670.181 141.714C670.49 141.872 670.67 142.022 670.717 142.063C670.798 142.133 670.718 142.077 670.487 141.769C670.044 141.177 669.47 140.227 668.876 139.069C668.296 137.937 667.779 136.765 667.42 135.81C667.239 135.331 667.12 134.961 667.052 134.714C666.956 134.36 667.041 134.529 667.041 134.975H657.041C657.041 135.919 657.259 136.811 657.404 137.343C657.578 137.983 657.808 138.663 658.06 139.331C658.564 140.672 659.24 142.191 659.977 143.629C660.7 145.041 661.567 146.541 662.484 147.764C662.933 148.364 663.512 149.058 664.208 149.654C664.751 150.12 666.137 151.214 668.139 151.279L668.463 141.284Z" fill="url(#paint5_linear_155_23)" mask="url(#path-5-inside-3_155_23)"/>
<rect x="147.805" y="35.8795" width="487.131" height="178.342" rx="28" fill="url(#paint6_linear_155_23)"/>
<rect x="166.628" y="54.5507" width="453.25" height="139.712" rx="16" fill="url(#paint7_linear_155_23)"/>
<rect x="188.203" y="60.4137" width="410.099" height="93.863" rx="21" stroke="url(#paint8_linear_155_23)" stroke-width="4"/>
<rect x="2" y="-2" width="428.169" height="120.904" rx="21" transform="matrix(1 0 0 -1 177.169 186.4)" stroke="url(#paint9_linear_155_23)" stroke-width="4"/>
<mask id="path-11-inside-4_155_23" fill="white">
<path fill-rule="evenodd" clip-rule="evenodd" d="M72.138 142.112C83.5731 142.112 92.843 134.185 92.843 124.407C92.843 114.628 83.5731 106.701 72.138 106.701C60.703 106.701 51.4331 114.628 51.4331 124.407C51.4331 134.185 60.703 142.112 72.138 142.112ZM709.85 142.112C721.285 142.112 730.555 134.185 730.555 124.407C730.555 114.628 721.285 106.701 709.85 106.701C698.415 106.701 689.145 114.628 689.145 124.407C689.145 134.185 698.415 142.112 709.85 142.112Z"/>
</mask>
<path fill-rule="evenodd" clip-rule="evenodd" d="M72.138 142.112C83.5731 142.112 92.843 134.185 92.843 124.407C92.843 114.628 83.5731 106.701 72.138 106.701C60.703 106.701 51.4331 114.628 51.4331 124.407C51.4331 134.185 60.703 142.112 72.138 142.112ZM709.85 142.112C721.285 142.112 730.555 134.185 730.555 124.407C730.555 114.628 721.285 106.701 709.85 106.701C698.415 106.701 689.145 114.628 689.145 124.407C689.145 134.185 698.415 142.112 709.85 142.112Z" fill="url(#paint10_linear_155_23)"/>
<path d="M90.843 124.407C90.843 132.799 82.7735 140.112 72.138 140.112V144.112C84.3726 144.112 94.843 135.572 94.843 124.407H90.843ZM72.138 108.701C82.7735 108.701 90.843 116.015 90.843 124.407H94.843C94.843 113.242 84.3726 104.701 72.138 104.701V108.701ZM53.4331 124.407C53.4331 116.015 61.5025 108.701 72.138 108.701V104.701C59.9035 104.701 49.4331 113.242 49.4331 124.407H53.4331ZM72.138 140.112C61.5025 140.112 53.4331 132.799 53.4331 124.407H49.4331C49.4331 135.572 59.9035 144.112 72.138 144.112V140.112ZM728.555 124.407C728.555 132.799 720.486 140.112 709.85 140.112V144.112C722.085 144.112 732.555 135.572 732.555 124.407H728.555ZM709.85 108.701C720.486 108.701 728.555 116.015 728.555 124.407H732.555C732.555 113.242 722.085 104.701 709.85 104.701V108.701ZM691.145 124.407C691.145 116.015 699.215 108.701 709.85 108.701V104.701C697.616 104.701 687.145 113.242 687.145 124.407H691.145ZM709.85 140.112C699.215 140.112 691.145 132.799 691.145 124.407H687.145C687.145 135.572 697.616 144.112 709.85 144.112V140.112Z" fill="url(#paint11_linear_155_23)" mask="url(#path-11-inside-4_155_23)"/>
<rect x="304" y="221.648" width="175" height="11.2568" rx="3" fill="url(#paint12_linear_155_23)"/>
<mask id="path-14-inside-5_155_23" fill="white">
<path fill-rule="evenodd" clip-rule="evenodd" d="M627.442 18.2979C629.252 15.7696 632.786 15.2239 635.274 17.0887L684.935 54.3132C687.546 56.2699 688.114 59.9536 686.216 62.6064L679.615 71.828C677.657 74.5646 673.831 75.1553 671.138 73.1368L619.051 34.0941C618.013 33.3158 616.75 32.8951 615.452 32.8951H559C555.686 32.8951 553 30.2088 553 26.8951V26.6149C553 23.3012 555.686 20.6149 559 20.6149H622.934C624.723 20.6149 626.401 19.7522 627.442 18.2979ZM145.972 17.0887C148.46 15.2239 151.995 15.7696 153.805 18.2979C154.845 19.7522 156.524 20.6149 158.312 20.6149H222.246C225.56 20.6149 228.246 23.3012 228.246 26.6149V26.8951C228.246 30.2088 225.56 32.8951 222.246 32.8951H165.794C164.497 32.8951 163.234 33.3158 162.195 34.0941L110.109 73.1368C107.416 75.1553 103.59 74.5646 101.631 71.828L95.0307 62.6064C93.1319 59.9536 93.7007 56.2699 96.311 54.3132L145.972 17.0887ZM145.972 235.953C148.46 237.817 151.995 237.272 153.805 234.743C154.845 233.289 156.524 232.426 158.312 232.426H222.246C225.56 232.426 228.246 229.74 228.246 226.426V226.146C228.246 222.833 225.56 220.146 222.246 220.146H165.794C164.497 220.146 163.234 219.726 162.195 218.947L110.109 179.905C107.416 177.886 103.59 178.477 101.631 181.213L95.0307 190.435C93.1319 193.088 93.7007 196.771 96.311 198.728L145.972 235.953ZM635.274 235.953C632.786 237.817 629.252 237.272 627.442 234.743C626.401 233.289 624.722 232.426 622.934 232.426H559C555.686 232.426 553 229.74 553 226.426V226.146C553 222.833 555.686 220.146 559 220.146H615.452C616.75 220.146 618.013 219.726 619.051 218.947L671.138 179.905C673.831 177.886 677.657 178.477 679.615 181.213L686.216 190.435C688.114 193.088 687.546 196.771 684.935 198.728L635.274 235.953Z"/>
</mask>
<path fill-rule="evenodd" clip-rule="evenodd" d="M627.442 18.2979C629.252 15.7696 632.786 15.2239 635.274 17.0887L684.935 54.3132C687.546 56.2699 688.114 59.9536 686.216 62.6064L679.615 71.828C677.657 74.5646 673.831 75.1553 671.138 73.1368L619.051 34.0941C618.013 33.3158 616.75 32.8951 615.452 32.8951H559C555.686 32.8951 553 30.2088 553 26.8951V26.6149C553 23.3012 555.686 20.6149 559 20.6149H622.934C624.723 20.6149 626.401 19.7522 627.442 18.2979ZM145.972 17.0887C148.46 15.2239 151.995 15.7696 153.805 18.2979C154.845 19.7522 156.524 20.6149 158.312 20.6149H222.246C225.56 20.6149 228.246 23.3012 228.246 26.6149V26.8951C228.246 30.2088 225.56 32.8951 222.246 32.8951H165.794C164.497 32.8951 163.234 33.3158 162.195 34.0941L110.109 73.1368C107.416 75.1553 103.59 74.5646 101.631 71.828L95.0307 62.6064C93.1319 59.9536 93.7007 56.2699 96.311 54.3132L145.972 17.0887ZM145.972 235.953C148.46 237.817 151.995 237.272 153.805 234.743C154.845 233.289 156.524 232.426 158.312 232.426H222.246C225.56 232.426 228.246 229.74 228.246 226.426V226.146C228.246 222.833 225.56 220.146 222.246 220.146H165.794C164.497 220.146 163.234 219.726 162.195 218.947L110.109 179.905C107.416 177.886 103.59 178.477 101.631 181.213L95.0307 190.435C93.1319 193.088 93.7007 196.771 96.311 198.728L145.972 235.953ZM635.274 235.953C632.786 237.817 629.252 237.272 627.442 234.743C626.401 233.289 624.722 232.426 622.934 232.426H559C555.686 232.426 553 229.74 553 226.426V226.146C553 222.833 555.686 220.146 559 220.146H615.452C616.75 220.146 618.013 219.726 619.051 218.947L671.138 179.905C673.831 177.886 677.657 178.477 679.615 181.213L686.216 190.435C688.114 193.088 687.546 196.771 684.935 198.728L635.274 235.953Z" fill="url(#paint13_linear_155_23)"/>
<path d="M635.274 17.0887L634.675 17.8889L634.675 17.8889L635.274 17.0887ZM627.442 18.2979L626.629 17.7159L626.629 17.7159L627.442 18.2979ZM684.935 54.3132L685.535 53.5131L685.535 53.5131L684.935 54.3132ZM686.216 62.6064L685.403 62.0244L685.403 62.0244L686.216 62.6064ZM679.615 71.828L680.429 72.41L680.429 72.41L679.615 71.828ZM671.138 73.1368L670.538 73.9369L670.538 73.9369L671.138 73.1368ZM619.051 34.0941L618.451 34.8943L618.451 34.8943L619.051 34.0941ZM153.805 18.2979L152.991 18.88L152.991 18.88L153.805 18.2979ZM145.972 17.0887L145.372 16.2886L145.372 16.2886L145.972 17.0887ZM162.195 34.0941L162.795 34.8943L162.795 34.8943L162.195 34.0941ZM110.109 73.1368L110.709 73.9369L110.709 73.9369L110.109 73.1368ZM101.631 71.828L100.818 72.41L100.818 72.41L101.631 71.828ZM95.0307 62.6064L94.2175 63.1884L94.2175 63.1884L95.0307 62.6064ZM96.311 54.3132L96.9108 55.1134L96.9108 55.1134L96.311 54.3132ZM153.805 234.743L154.618 235.325L154.618 235.325L153.805 234.743ZM145.972 235.953L146.572 235.152L146.572 235.152L145.972 235.953ZM162.195 218.947L161.596 219.747L161.596 219.747L162.195 218.947ZM110.109 179.905L109.509 180.705L109.509 180.705L110.109 179.905ZM101.631 181.213L100.818 180.631L100.818 180.631L101.631 181.213ZM95.0307 190.435L94.2175 189.853L94.2175 189.853L95.0307 190.435ZM96.311 198.728L96.9108 197.928L96.9108 197.928L96.311 198.728ZM627.442 234.743L626.629 235.325L626.629 235.325L627.442 234.743ZM635.274 235.953L634.675 235.152L634.675 235.152L635.274 235.953ZM619.051 218.947L619.651 219.747L619.651 219.747L619.051 218.947ZM671.138 179.905L670.538 179.104L670.538 179.104L671.138 179.905ZM679.615 181.213L680.429 180.631L680.429 180.631L679.615 181.213ZM686.216 190.435L685.403 191.017L685.403 191.017L686.216 190.435ZM684.935 198.728L684.336 197.928L684.336 197.928L684.935 198.728ZM635.874 16.2886C632.937 14.0873 628.765 14.7315 626.629 17.7159L628.255 18.88C629.738 16.8077 632.635 16.3605 634.675 17.8889L635.874 16.2886ZM685.535 53.5131L635.874 16.2886L634.675 17.8889L684.336 55.1134L685.535 53.5131ZM687.029 63.1884C689.244 60.0935 688.581 55.7958 685.535 53.5131L684.336 55.1134C686.511 56.7439 686.985 59.8137 685.403 62.0244L687.029 63.1884ZM680.429 72.41L687.029 63.1884L685.403 62.0244L678.802 71.2459L680.429 72.41ZM670.538 73.9369C673.68 76.2919 678.143 75.6027 680.429 72.41L678.802 71.2459C677.17 73.5265 673.981 74.0187 671.737 72.3366L670.538 73.9369ZM618.451 34.8943L670.538 73.9369L671.737 72.3366L619.651 33.2939L618.451 34.8943ZM615.452 33.8951C616.534 33.8951 617.586 34.2457 618.451 34.8943L619.651 33.2939C618.439 32.3859 616.966 31.8951 615.452 31.8951V33.8951ZM559 33.8951H615.452V31.8951H559V33.8951ZM552 26.8951C552 30.7611 555.134 33.8951 559 33.8951V31.8951C556.239 31.8951 554 29.6565 554 26.8951H552ZM552 26.6149V26.8951H554V26.6149H552ZM559 19.6149C555.134 19.6149 552 22.7489 552 26.6149H554C554 23.8535 556.239 21.6149 559 21.6149V19.6149ZM622.934 19.6149H559V21.6149H622.934V19.6149ZM626.629 17.7159C625.776 18.9078 624.4 19.6149 622.934 19.6149V21.6149C625.045 21.6149 627.026 20.5965 628.255 18.88L626.629 17.7159ZM154.618 17.7159C152.482 14.7315 148.309 14.0873 145.372 16.2886L146.572 17.8889C148.611 16.3605 151.508 16.8077 152.991 18.88L154.618 17.7159ZM158.312 19.6149C156.847 19.6149 155.471 18.9078 154.618 17.7159L152.991 18.88C154.22 20.5965 156.201 21.6149 158.312 21.6149V19.6149ZM222.246 19.6149H158.312V21.6149H222.246V19.6149ZM229.246 26.6149C229.246 22.7489 226.112 19.6149 222.246 19.6149V21.6149C225.008 21.6149 227.246 23.8535 227.246 26.6149H229.246ZM229.246 26.8951V26.6149H227.246V26.8951H229.246ZM222.246 33.8951C226.112 33.8951 229.246 30.7611 229.246 26.8951H227.246C227.246 29.6565 225.008 31.8951 222.246 31.8951V33.8951ZM165.794 33.8951H222.246V31.8951H165.794V33.8951ZM162.795 34.8943C163.661 34.2457 164.713 33.8951 165.794 33.8951V31.8951C164.28 31.8951 162.807 32.3859 161.596 33.2939L162.795 34.8943ZM110.709 73.9369L162.795 34.8943L161.596 33.2939L109.509 72.3366L110.709 73.9369ZM100.818 72.41C103.103 75.6027 107.567 76.2918 110.709 73.9369L109.509 72.3366C107.265 74.0187 104.077 73.5265 102.444 71.2459L100.818 72.41ZM94.2175 63.1884L100.818 72.41L102.444 71.2459L95.8438 62.0244L94.2175 63.1884ZM95.7112 53.5131C92.6658 55.7958 92.0023 60.0935 94.2175 63.1884L95.8438 62.0244C94.2616 59.8137 94.7355 56.7439 96.9108 55.1134L95.7112 53.5131ZM145.372 16.2886L95.7112 53.5131L96.9108 55.1134L146.572 17.8889L145.372 16.2886ZM152.991 234.161C151.508 236.234 148.611 236.681 146.572 235.152L145.372 236.753C148.309 238.954 152.482 238.31 154.618 235.325L152.991 234.161ZM158.312 231.426C156.201 231.426 154.22 232.445 152.991 234.161L154.618 235.325C155.471 234.134 156.847 233.426 158.312 233.426V231.426ZM222.246 231.426H158.312V233.426H222.246V231.426ZM227.246 226.426C227.246 229.188 225.008 231.426 222.246 231.426V233.426C226.112 233.426 229.246 230.292 229.246 226.426H227.246ZM227.246 226.146V226.426H229.246V226.146H227.246ZM222.246 221.146C225.008 221.146 227.246 223.385 227.246 226.146H229.246C229.246 222.28 226.112 219.146 222.246 219.146V221.146ZM165.794 221.146H222.246V219.146H165.794V221.146ZM161.596 219.747C162.807 220.655 164.28 221.146 165.794 221.146V219.146C164.713 219.146 163.661 218.796 162.795 218.147L161.596 219.747ZM109.509 180.705L161.596 219.747L162.795 218.147L110.709 179.104L109.509 180.705ZM102.444 181.795C104.077 179.515 107.265 179.023 109.509 180.705L110.709 179.104C107.567 176.75 103.103 177.439 100.818 180.631L102.444 181.795ZM95.8438 191.017L102.444 181.795L100.818 180.631L94.2175 189.853L95.8438 191.017ZM96.9108 197.928C94.7355 196.297 94.2616 193.228 95.8438 191.017L94.2175 189.853C92.0023 192.948 92.6658 197.246 95.7112 199.528L96.9108 197.928ZM146.572 235.152L96.9108 197.928L95.7112 199.528L145.372 236.753L146.572 235.152ZM626.629 235.325C628.765 238.31 632.937 238.954 635.874 236.753L634.675 235.152C632.635 236.681 629.738 236.234 628.255 234.161L626.629 235.325ZM622.934 233.426C624.4 233.426 625.776 234.134 626.629 235.325L628.255 234.161C627.026 232.445 625.045 231.426 622.934 231.426V233.426ZM559 233.426H622.934V231.426H559V233.426ZM552 226.426C552 230.292 555.134 233.426 559 233.426V231.426C556.239 231.426 554 229.188 554 226.426H552ZM552 226.146V226.426H554V226.146H552ZM559 219.146C555.134 219.146 552 222.28 552 226.146H554C554 223.385 556.239 221.146 559 221.146V219.146ZM615.452 219.146H559V221.146H615.452V219.146ZM618.451 218.147C617.586 218.796 616.534 219.146 615.452 219.146V221.146C616.966 221.146 618.439 220.655 619.651 219.747L618.451 218.147ZM670.538 179.104L618.451 218.147L619.651 219.747L671.737 180.705L670.538 179.104ZM680.429 180.631C678.143 177.439 673.68 176.75 670.538 179.104L671.737 180.705C673.981 179.023 677.17 179.515 678.802 181.795L680.429 180.631ZM687.029 189.853L680.429 180.631L678.802 181.795L685.403 191.017L687.029 189.853ZM685.535 199.528C688.581 197.246 689.244 192.948 687.029 189.853L685.403 191.017C686.985 193.228 686.511 196.297 684.336 197.928L685.535 199.528ZM635.874 236.753L685.535 199.528L684.336 197.928L634.675 235.152L635.874 236.753Z" fill="url(#paint14_linear_155_23)" mask="url(#path-14-inside-5_155_23)"/>
<path d="M298.06 156.166C317.14 156.153 315.352 145.489 315.352 139.649L267.862 139.674V129.01H278.871L286.335 120.615L267.862 120.627V104.396L304.467 104.371L315.352 92.3304C315.352 92.3304 281.235 92.3552 267.862 92.3552C255.064 92.3676 250.446 99.4852 250.446 107.595C250.446 115.977 250.446 115.977 250.446 156.19L298.06 156.166ZM367.6 92.1196L322.225 136.363V156.066L375.655 105.065V131.502L351.832 131.514L343.186 139.55L375.655 139.525V156.029C383.818 156.029 389.043 149.73 389.043 144.807C389.043 139.884 389.043 92.1072 389.043 92.1072L367.6 92.1196ZM396.974 104.048L444.354 139.215L414.265 139.24L396.383 156.203L443.888 156.178C461.77 156.166 459.516 147.684 459.516 139.215L411.777 104.048L450.745 104.024L461.77 92.442C461.77 92.442 427.063 92.4544 414.265 92.4668C403.956 92.4668 396.974 95.666 396.974 104.048ZM502.76 117.49L477.056 91.884H466.513L497.427 122.413L502.76 117.49ZM514.967 108.909L532.492 91.8592V111.637L487.008 156.153L466.513 156.166L514.967 108.909Z" fill="#28F4D5"/>
</g>
<defs>
<filter id="filter0_d_155_23" x="0" y="0" width="782.741" height="256" filterUnits="userSpaceOnUse" color-interpolation-filters="sRGB">
<feFlood flood-opacity="0" result="BackgroundImageFix"/>
<feColorMatrix in="SourceAlpha" type="matrix" values="0 0 0 0 0 0 0 0 0 0 0 0 0 0 0 0 0 0 127 0" result="hardAlpha"/>
<feOffset dy="4"/>
<feGaussianBlur stdDeviation="2"/>
<feComposite in2="hardAlpha" operator="out"/>
<feColorMatrix type="matrix" values="0 0 0 0 0 0 0 0 0 0 0 0 0 0 0 0 0 0 0.25 0"/>
<feBlend mode="normal" in2="BackgroundImageFix" result="effect1_dropShadow_155_23"/>
<feBlend mode="normal" in="SourceGraphic" in2="effect1_dropShadow_155_23" result="shape"/>
</filter>
<linearGradient id="paint0_linear_155_23" x1="713.991" y1="70.0027" x2="713.991" y2="178.811" gradientUnits="userSpaceOnUse">
<stop offset="0.015"/>
<stop offset="0.495" stop-color="#2A1C46"/>
<stop offset="1"/>
</linearGradient>
<linearGradient id="paint1_linear_155_23" x1="391.371" y1="70.0027" x2="391.371" y2="178.811" gradientUnits="userSpaceOnUse">
<stop stop-color="#06C7C7"/>
<stop offset="1" stop-color="#800894" stop-opacity="0"/>
</linearGradient>
<linearGradient id="paint2_linear_155_23" x1="391.371" y1="101.551" x2="391.371" y2="147.263" gradientUnits="userSpaceOnUse">
<stop stop-color="#151F2D"/>
<stop offset="1" stop-color="#3E1556"/>
</linearGradient>
<linearGradient id="paint3_linear_155_23" x1="391.371" y1="101.551" x2="391.371" y2="147.263" gradientUnits="userSpaceOnUse">
<stop/>
<stop offset="1" stop-color="#0EF1FF"/>
</linearGradient>
<linearGradient id="paint4_linear_155_23" x1="391.63" y1="21.0712" x2="391.72" y2="194.585" gradientUnits="userSpaceOnUse">
<stop offset="0.04"/>
<stop offset="0.52" stop-color="#1B476F"/>
<stop offset="1" stop-color="#0F0215"/>
</linearGradient>
<linearGradient id="paint5_linear_155_23" x1="391.63" y1="21.0712" x2="391.63" y2="227.742" gradientUnits="userSpaceOnUse">
<stop stop-color="#24E5FF"/>
<stop offset="0.64" stop-color="#07121F"/>
<stop offset="0.99" stop-color="#39011C"/>
</linearGradient>
<linearGradient id="paint6_linear_155_23" x1="391.371" y1="35.8795" x2="391.371" y2="214.222" gradientUnits="userSpaceOnUse">
<stop offset="0.035" stop-color="#0E1E24"/>
<stop offset="0.57" stop-color="#240D43"/>
<stop offset="1" stop-color="#071A2C"/>
</linearGradient>
<linearGradient id="paint7_linear_155_23" x1="393.253" y1="-11.7644" x2="393.253" y2="360.695" gradientUnits="userSpaceOnUse">
<stop stop-color="#4893D9"/>
<stop offset="0.354219" stop-color="#030404"/>
<stop offset="0.95" stop-color="#A10DA4"/>
</linearGradient>
<linearGradient id="paint8_linear_155_23" x1="393.253" y1="58.4137" x2="393.253" y2="156.277" gradientUnits="userSpaceOnUse">
<stop stop-color="#00C9BD"/>
<stop offset="1" stop-color="#118780" stop-opacity="0"/>
</linearGradient>
<linearGradient id="paint9_linear_155_23" x1="216.084" y1="0" x2="216.084" y2="124.904" gradientUnits="userSpaceOnUse">
<stop stop-color="#00C9BD"/>
<stop offset="1" stop-color="#118780" stop-opacity="0"/>
</linearGradient>
<linearGradient id="paint10_linear_155_23" x1="390.994" y1="106.701" x2="390.994" y2="142.112" gradientUnits="userSpaceOnUse">
<stop offset="0.01" stop-color="#6A2276"/>
<stop offset="0.54" stop-color="#010002" stop-opacity="0.98"/>
<stop offset="0.96" stop-color="#590566" stop-opacity="0.98"/>
</linearGradient>
<linearGradient id="paint11_linear_155_23" x1="390.994" y1="106.701" x2="390.994" y2="142.112" gradientUnits="userSpaceOnUse">
<stop stop-color="#137A9A" stop-opacity="0"/>
<stop offset="1" stop-color="#0B98C5"/>
</linearGradient>
<linearGradient id="paint12_linear_155_23" x1="391.5" y1="221.648" x2="391.5" y2="232.905" gradientUnits="userSpaceOnUse">
<stop stop-color="#320A1B"/>
<stop offset="1" stop-color="#1F668E"/>
</linearGradient>
<linearGradient id="paint13_linear_155_23" x1="390.623" y1="15.9806" x2="390.623" y2="237.061" gradientUnits="userSpaceOnUse">
<stop offset="0.03" stop-color="#0D1719"/>
<stop offset="0.315" stop-color="#0E1112"/>
<stop offset="0.695" stop-color="#121827" stop-opacity="0.9814"/>
<stop offset="1" stop-color="#23A5A5" stop-opacity="0.96"/>
</linearGradient>
<linearGradient id="paint14_linear_155_23" x1="390.623" y1="15.9806" x2="390.623" y2="237.061" gradientUnits="userSpaceOnUse">
<stop stop-color="#0F789A"/>
<stop offset="1" stop-color="#370E2E"/>
</linearGradient>
</defs>
</svg>
