<svg width="775" height="243" viewBox="0 0 775 243" fill="none" xmlns="http://www.w3.org/2000/svg">
<mask id="path-1-inside-1_155_21" fill="white">
<path fill-rule="evenodd" clip-rule="evenodd" d="M12 68.0221C5.37258 68.0221 0 73.3947 0 80.0221V164.83C0 171.458 5.37258 176.83 12 176.83H117.5C124.127 176.83 129.5 171.458 129.5 164.83V80.0221C129.5 73.3947 124.127 68.0221 117.5 68.0221H12ZM657.241 68.0221C650.614 68.0221 645.241 73.3947 645.241 80.0221V164.83C645.241 171.458 650.614 176.83 657.241 176.83H762.741C769.369 176.83 774.741 171.458 774.741 164.83V80.0221C774.741 73.3947 769.369 68.0221 762.741 68.0221H657.241Z"/>
</mask>
<path fill-rule="evenodd" clip-rule="evenodd" d="M12 68.0221C5.37258 68.0221 0 73.3947 0 80.0221V164.83C0 171.458 5.37258 176.83 12 176.83H117.5C124.127 176.83 129.5 171.458 129.5 164.83V80.0221C129.5 73.3947 124.127 68.0221 117.5 68.0221H12ZM657.241 68.0221C650.614 68.0221 645.241 73.3947 645.241 80.0221V164.83C645.241 171.458 650.614 176.83 657.241 176.83H762.741C769.369 176.83 774.741 171.458 774.741 164.83V80.0221C774.741 73.3947 769.369 68.0221 762.741 68.0221H657.241Z" fill="url(#paint0_linear_155_21)"/>
<path d="M3 80.0221C3 75.0515 7.02944 71.0221 12 71.0221V65.0221C3.71573 65.0221 -3 71.7378 -3 80.0221H3ZM3 164.83V80.0221H-3V164.83H3ZM12 173.83C7.02943 173.83 3 169.801 3 164.83H-3C-3 173.115 3.71572 179.83 12 179.83V173.83ZM117.5 173.83H12V179.83H117.5V173.83ZM126.5 164.83C126.5 169.801 122.471 173.83 117.5 173.83V179.83C125.784 179.83 132.5 173.115 132.5 164.83H126.5ZM126.5 80.0221V164.83H132.5V80.0221H126.5ZM117.5 71.0221C122.471 71.0221 126.5 75.0515 126.5 80.0221H132.5C132.5 71.7378 125.784 65.0221 117.5 65.0221V71.0221ZM12 71.0221H117.5V65.0221H12V71.0221ZM648.241 80.0221C648.241 75.0515 652.271 71.0221 657.241 71.0221V65.0221C648.957 65.0221 642.241 71.7378 642.241 80.0221H648.241ZM648.241 164.83V80.0221H642.241V164.83H648.241ZM657.241 173.83C652.271 173.83 648.241 169.801 648.241 164.83H642.241C642.241 173.115 648.957 179.83 657.241 179.83V173.83ZM762.741 173.83H657.241V179.83H762.741V173.83ZM771.741 164.83C771.741 169.801 767.712 173.83 762.741 173.83V179.83C771.026 179.83 777.741 173.115 777.741 164.83H771.741ZM771.741 80.0221V164.83H777.741V80.0221H771.741ZM762.741 71.0221C767.712 71.0221 771.741 75.0515 771.741 80.0221H777.741C777.741 71.7378 771.026 65.0221 762.741 65.0221V71.0221ZM657.241 71.0221H762.741V65.0221H657.241V71.0221Z" fill="url(#paint1_linear_155_21)" mask="url(#path-1-inside-1_155_21)"/>
<mask id="path-3-inside-2_155_21" fill="white">
<path fill-rule="evenodd" clip-rule="evenodd" d="M65.0189 99.5701C52.3958 99.5701 42.1628 109.803 42.1628 122.426C42.1628 135.049 52.3958 145.282 65.0189 145.282H116.432C129.055 145.282 139.288 135.049 139.288 122.426C139.288 109.803 129.055 99.5701 116.432 99.5701H65.0189ZM658.31 99.5701C645.687 99.5701 635.453 109.803 635.453 122.426C635.453 135.049 645.687 145.282 658.31 145.282H709.722C722.345 145.282 732.578 135.049 732.578 122.426C732.578 109.803 722.345 99.5701 709.722 99.5701H658.31Z"/>
</mask>
<path fill-rule="evenodd" clip-rule="evenodd" d="M65.0189 99.5701C52.3958 99.5701 42.1628 109.803 42.1628 122.426C42.1628 135.049 52.3958 145.282 65.0189 145.282H116.432C129.055 145.282 139.288 135.049 139.288 122.426C139.288 109.803 129.055 99.5701 116.432 99.5701H65.0189ZM658.31 99.5701C645.687 99.5701 635.453 109.803 635.453 122.426C635.453 135.049 645.687 145.282 658.31 145.282H709.722C722.345 145.282 732.578 135.049 732.578 122.426C732.578 109.803 722.345 99.5701 709.722 99.5701H658.31Z" fill="url(#paint2_linear_155_21)"/>
<path d="M43.1628 122.426C43.1628 110.355 52.9481 100.57 65.0189 100.57V98.5701C51.8435 98.5701 41.1628 109.251 41.1628 122.426H43.1628ZM65.0189 144.282C52.9481 144.282 43.1628 134.497 43.1628 122.426H41.1628C41.1628 135.602 51.8436 146.282 65.0189 146.282V144.282ZM116.432 144.282H65.0189V146.282H116.432V144.282ZM138.288 122.426C138.288 134.497 128.502 144.282 116.432 144.282V146.282C129.607 146.282 140.288 135.602 140.288 122.426H138.288ZM116.432 100.57C128.502 100.57 138.288 110.355 138.288 122.426H140.288C140.288 109.251 129.607 98.5701 116.432 98.5701V100.57ZM65.0189 100.57H116.432V98.5701H65.0189V100.57ZM636.453 122.426C636.453 110.355 646.239 100.57 658.31 100.57V98.5701C645.134 98.5701 634.453 109.251 634.453 122.426H636.453ZM658.31 144.282C646.239 144.282 636.453 134.497 636.453 122.426H634.453C634.453 135.602 645.134 146.282 658.31 146.282V144.282ZM709.722 144.282H658.31V146.282H709.722V144.282ZM731.578 122.426C731.578 134.497 721.793 144.282 709.722 144.282V146.282C722.898 146.282 733.578 135.602 733.578 122.426H731.578ZM709.722 100.57C721.793 100.57 731.578 110.355 731.578 122.426H733.578C733.578 109.251 722.898 98.5701 709.722 98.5701V100.57ZM658.31 100.57H709.722V98.5701H658.31V100.57Z" fill="url(#paint3_linear_155_21)" mask="url(#path-3-inside-2_155_21)"/>
<mask id="path-5-inside-3_155_21" fill="white">
<path fill-rule="evenodd" clip-rule="evenodd" d="M103.785 100.396L110.445 100.612C112.588 100.681 116.701 109.714 116.701 111.858V111.858V133.639V133.639C116.701 136.581 113.461 144.22 110.52 144.315L103.785 144.534C81.5036 145.256 70.3584 171.815 87.0192 184.487L130.351 217.443C131.208 218.094 132.099 218.673 133.018 219.18C137.983 221.922 143.399 224.808 149.013 225.618C149.671 225.713 150.344 225.762 151.029 225.762H623.712C624.277 225.762 624.834 225.728 625.381 225.663C631.172 224.975 636.808 222.077 641.955 219.335C642.975 218.791 643.963 218.161 644.909 217.442L688.241 184.486C704.902 171.815 693.757 145.255 671.476 144.533L664.301 144.301C662.316 144.236 658.041 134.981 658.041 132.995V132.995V111.858V111.858C658.041 109.674 662.112 100.7 664.295 100.629L671.476 100.396C693.757 99.6743 704.903 73.1147 688.242 60.4433L644.91 27.4871C644.008 26.8015 643.068 26.1968 642.098 25.6705C636.932 22.8687 631.263 19.9084 625.429 19.1949C624.867 19.126 624.294 19.0906 623.712 19.0906H151.029C150.327 19.0906 149.637 19.1423 148.962 19.2421C143.305 20.0792 137.857 23.0288 132.872 25.8312C132.005 26.3188 131.162 26.8702 130.351 27.4871L87.0192 60.4433C70.3584 73.1147 81.5036 99.6743 103.785 100.396Z"/>
</mask>
<path fill-rule="evenodd" clip-rule="evenodd" d="M103.785 100.396L110.445 100.612C112.588 100.681 116.701 109.714 116.701 111.858V111.858V133.639V133.639C116.701 136.581 113.461 144.22 110.52 144.315L103.785 144.534C81.5036 145.256 70.3584 171.815 87.0192 184.487L130.351 217.443C131.208 218.094 132.099 218.673 133.018 219.18C137.983 221.922 143.399 224.808 149.013 225.618C149.671 225.713 150.344 225.762 151.029 225.762H623.712C624.277 225.762 624.834 225.728 625.381 225.663C631.172 224.975 636.808 222.077 641.955 219.335C642.975 218.791 643.963 218.161 644.909 217.442L688.241 184.486C704.902 171.815 693.757 145.255 671.476 144.533L664.301 144.301C662.316 144.236 658.041 134.981 658.041 132.995V132.995V111.858V111.858C658.041 109.674 662.112 100.7 664.295 100.629L671.476 100.396C693.757 99.6743 704.903 73.1147 688.242 60.4433L644.91 27.4871C644.008 26.8015 643.068 26.1968 642.098 25.6705C636.932 22.8687 631.263 19.9084 625.429 19.1949C624.867 19.126 624.294 19.0906 623.712 19.0906H151.029C150.327 19.0906 149.637 19.1423 148.962 19.2421C143.305 20.0792 137.857 23.0288 132.872 25.8312C132.005 26.3188 131.162 26.8702 130.351 27.4871L87.0192 60.4433C70.3584 73.1147 81.5036 99.6743 103.785 100.396Z" fill="url(#paint4_linear_155_21)"/>
<path d="M103.785 100.396L103.623 105.394L103.623 105.394L103.785 100.396ZM103.785 144.534L103.623 139.536L103.623 139.536L103.785 144.534ZM87.0192 184.487L90.046 180.507L90.046 180.507L87.0192 184.487ZM130.351 217.443L133.378 213.463L133.378 213.463L130.351 217.443ZM644.909 217.442L641.882 213.462L641.882 213.462L644.909 217.442ZM688.241 184.486L685.214 180.507L685.214 180.507L688.241 184.486ZM671.476 144.533L671.638 139.536L671.638 139.536L671.476 144.533ZM671.476 100.396L671.638 105.394L671.638 105.394L671.476 100.396ZM688.242 60.4433L691.269 56.4635L691.269 56.4635L688.242 60.4433ZM644.91 27.4871L647.937 23.5074L647.937 23.5074L644.91 27.4871ZM130.351 27.4871L133.378 31.4669L133.378 31.4669L130.351 27.4871ZM87.0192 60.4433L83.9924 56.4635L83.9924 56.4635L87.0192 60.4433ZM664.295 100.629L664.133 95.6315L664.133 95.6315L664.295 100.629ZM642.098 25.6705L639.714 30.0658L642.098 25.6705ZM625.381 225.663L624.791 220.698L625.381 225.663ZM641.955 219.335L644.306 223.748L641.955 219.335ZM133.018 219.18L130.601 223.557L133.018 219.18ZM149.013 225.618L149.727 220.669L149.013 225.618ZM110.52 144.315L110.359 139.318L110.52 144.315ZM664.301 144.301L664.139 149.298L664.301 144.301ZM110.607 95.6146L103.947 95.3988L103.623 105.394L110.283 105.609L110.607 95.6146ZM121.701 133.639V111.858H111.701V133.639H121.701ZM103.947 149.531L110.682 149.313L110.359 139.318L103.623 139.536L103.947 149.531ZM90.046 180.507C83.813 175.766 82.657 168.523 85.4093 161.964C88.1906 155.336 94.8837 149.825 103.947 149.531L103.623 139.536C90.4046 139.965 80.3846 148.094 76.1882 158.094C71.9628 168.164 73.5646 180.536 83.9924 188.466L90.046 180.507ZM133.378 213.463L90.046 180.507L83.9924 188.466L127.324 221.423L133.378 213.463ZM135.435 214.803C134.726 214.412 134.039 213.966 133.378 213.463L127.324 221.423C128.376 222.223 129.472 222.933 130.601 223.557L135.435 214.803ZM151.029 220.762C150.584 220.762 150.149 220.73 149.727 220.669L148.299 230.567C149.193 230.695 150.105 230.762 151.029 230.762V220.762ZM623.712 220.762H151.029V230.762H623.712V220.762ZM624.791 220.698C624.439 220.74 624.079 220.762 623.712 220.762V230.762C624.475 230.762 625.229 230.717 625.971 230.628L624.791 220.698ZM641.882 213.462C641.152 214.017 640.391 214.503 639.603 214.922L644.306 223.748C645.56 223.079 646.774 222.305 647.935 221.422L641.882 213.462ZM685.214 180.507L641.882 213.462L647.935 221.422L691.268 188.466L685.214 180.507ZM671.314 149.531C680.377 149.824 687.07 155.335 689.851 161.964C692.603 168.522 691.447 175.766 685.214 180.507L691.268 188.466C701.696 180.535 703.298 168.164 699.072 158.094C694.876 148.094 684.856 139.964 671.638 139.536L671.314 149.531ZM664.139 149.298L671.314 149.531L671.638 139.536L664.463 139.303L664.139 149.298ZM653.041 111.858V132.995H663.041V111.858H653.041ZM671.314 95.3988L664.133 95.6315L664.457 105.626L671.638 105.394L671.314 95.3988ZM685.215 64.4231C691.448 69.1636 692.604 76.4073 689.852 82.9661C687.07 89.5941 680.377 95.1052 671.314 95.3988L671.638 105.394C684.856 104.965 694.876 96.8356 699.073 86.8355C703.298 76.7661 701.696 64.3944 691.269 56.4635L685.215 64.4231ZM641.883 31.4669L685.215 64.4231L691.269 56.4635L647.937 23.5074L641.883 31.4669ZM639.714 30.0658C640.463 30.4715 641.187 30.9378 641.883 31.4669L647.937 23.5074C646.829 22.6653 645.674 21.922 644.482 21.2753L639.714 30.0658ZM623.712 24.0906C624.09 24.0906 624.461 24.1136 624.822 24.1579L626.036 14.2318C625.273 14.1384 624.497 14.0906 623.712 14.0906V24.0906ZM151.029 24.0906H623.712V14.0906H151.029V24.0906ZM149.694 24.1882C150.127 24.1242 150.573 24.0906 151.029 24.0906V14.0906C150.081 14.0906 149.146 14.1604 148.23 14.2959L149.694 24.1882ZM133.378 31.4669C134.004 30.9907 134.653 30.5656 135.322 30.1897L130.422 21.4727C129.356 22.072 128.321 22.7497 127.324 23.5074L133.378 31.4669ZM90.046 64.4231L133.378 31.4669L127.324 23.5074L83.9924 56.4635L90.046 64.4231ZM103.947 95.3988C94.8837 95.1052 88.1906 89.5941 85.4093 82.9661C82.657 76.4073 83.813 69.1636 90.046 64.4231L83.9924 56.4635C73.5646 64.3944 71.9628 76.7661 76.1882 86.8355C80.3846 96.8356 90.4046 104.965 103.623 105.394L103.947 95.3988ZM148.23 14.2959C141.523 15.2885 135.301 18.7298 130.422 21.4727L135.322 30.1897C140.413 27.3278 145.088 24.8698 149.694 24.1882L148.23 14.2959ZM663.041 111.858C663.041 112.215 662.981 112.316 663.066 111.984C663.13 111.731 663.243 111.363 663.413 110.893C663.753 109.953 664.244 108.816 664.801 107.726C665.373 106.608 665.923 105.716 666.344 105.176C666.56 104.897 666.626 104.864 666.525 104.945C666.522 104.947 665.781 105.583 664.457 105.626L664.133 95.6315C662.263 95.692 660.917 96.6244 660.274 97.1393C659.532 97.7333 658.922 98.4298 658.45 99.0365C657.493 100.267 656.616 101.768 655.897 103.175C655.163 104.611 654.501 106.131 654.009 107.491C653.607 108.602 653.041 110.331 653.041 111.858H663.041ZM644.482 21.2753C639.431 18.5359 632.956 15.0782 626.036 14.2318L624.822 24.1579C629.57 24.7386 634.433 27.2014 639.714 30.0658L644.482 21.2753ZM110.283 105.609C109.557 105.586 109.017 105.383 108.716 105.239C108.414 105.095 108.234 104.955 108.177 104.909C108.08 104.83 108.148 104.867 108.368 105.152C108.793 105.703 109.348 106.607 109.924 107.733C110.486 108.832 110.983 109.976 111.327 110.919C111.499 111.391 111.613 111.759 111.678 112.011C111.765 112.347 111.701 112.232 111.701 111.858H121.701C121.701 110.947 121.508 110.081 121.361 109.513C121.193 108.86 120.969 108.17 120.722 107.493C120.227 106.137 119.562 104.617 118.828 103.181C118.108 101.772 117.233 100.271 116.285 99.0421C115.817 98.4367 115.213 97.7404 114.481 97.1456C113.856 96.6387 112.502 95.676 110.607 95.6146L110.283 105.609ZM625.971 230.628C632.838 229.813 639.277 226.427 644.306 223.748L639.603 214.922C634.339 217.727 629.507 220.138 624.791 220.698L625.971 230.628ZM130.601 223.557C135.458 226.239 141.644 229.607 148.299 230.567L149.727 220.669C145.153 220.009 140.509 217.605 135.435 214.803L130.601 223.557ZM111.701 133.639C111.701 133.586 111.703 133.694 111.646 133.994C111.592 134.274 111.502 134.634 111.371 135.059C111.107 135.915 110.72 136.877 110.267 137.758C109.797 138.672 109.357 139.3 109.056 139.626C108.604 140.115 109.04 139.361 110.359 139.318L110.682 149.313C113.471 149.223 115.415 147.478 116.398 146.416C117.531 145.19 118.452 143.707 119.16 142.331C119.884 140.923 120.491 139.418 120.926 138.011C121.333 136.693 121.701 135.109 121.701 133.639H111.701ZM664.463 139.303C665.283 139.33 665.879 139.579 666.181 139.734C666.49 139.892 666.67 140.042 666.717 140.082C666.798 140.152 666.718 140.097 666.487 139.789C666.044 139.196 665.47 138.246 664.876 137.088C664.296 135.956 663.779 134.784 663.42 133.83C663.239 133.35 663.12 132.981 663.052 132.734C662.956 132.379 663.041 132.548 663.041 132.995H653.041C653.041 133.938 653.259 134.831 653.404 135.363C653.578 136.002 653.808 136.682 654.06 137.35C654.564 138.692 655.24 140.21 655.977 141.648C656.7 143.061 657.567 144.561 658.484 145.784C658.933 146.384 659.512 147.077 660.208 147.674C660.751 148.139 662.137 149.233 664.139 149.298L664.463 139.303Z" fill="url(#paint5_linear_155_21)" mask="url(#path-5-inside-3_155_21)"/>
<rect x="143.805" y="33.8988" width="487.131" height="178.342" rx="28" fill="url(#paint6_linear_155_21)"/>
<rect x="162.628" y="52.5701" width="453.25" height="139.712" rx="16" fill="url(#paint7_linear_155_21)"/>
<rect x="184.203" y="58.4331" width="410.099" height="93.863" rx="21" stroke="url(#paint8_linear_155_21)" stroke-width="4"/>
<rect x="2" y="-2" width="428.169" height="120.904" rx="21" transform="matrix(1 0 0 -1 173.169 184.419)" stroke="url(#paint9_linear_155_21)" stroke-width="4"/>
<mask id="path-11-inside-4_155_21" fill="white">
<path fill-rule="evenodd" clip-rule="evenodd" d="M68.1381 140.132C79.5731 140.132 88.8431 132.205 88.8431 122.426C88.8431 112.648 79.5731 104.721 68.1381 104.721C56.7031 104.721 47.4332 112.648 47.4332 122.426C47.4332 132.205 56.7031 140.132 68.1381 140.132ZM705.85 140.132C717.285 140.132 726.555 132.205 726.555 122.426C726.555 112.648 717.285 104.721 705.85 104.721C694.415 104.721 685.145 112.648 685.145 122.426C685.145 132.205 694.415 140.132 705.85 140.132Z"/>
</mask>
<path fill-rule="evenodd" clip-rule="evenodd" d="M68.1381 140.132C79.5731 140.132 88.8431 132.205 88.8431 122.426C88.8431 112.648 79.5731 104.721 68.1381 104.721C56.7031 104.721 47.4332 112.648 47.4332 122.426C47.4332 132.205 56.7031 140.132 68.1381 140.132ZM705.85 140.132C717.285 140.132 726.555 132.205 726.555 122.426C726.555 112.648 717.285 104.721 705.85 104.721C694.415 104.721 685.145 112.648 685.145 122.426C685.145 132.205 694.415 140.132 705.85 140.132Z" fill="url(#paint10_linear_155_21)"/>
<path d="M86.8431 122.426C86.8431 130.818 78.7736 138.132 68.1381 138.132V142.132C80.3727 142.132 90.8431 133.591 90.8431 122.426H86.8431ZM68.1381 106.721C78.7736 106.721 86.8431 114.035 86.8431 122.426H90.8431C90.8431 111.261 80.3727 102.721 68.1381 102.721V106.721ZM49.4332 122.426C49.4332 114.035 57.5026 106.721 68.1381 106.721V102.721C55.9036 102.721 45.4332 111.261 45.4332 122.426H49.4332ZM68.1381 138.132C57.5026 138.132 49.4332 130.818 49.4332 122.426H45.4332C45.4332 133.591 55.9036 142.132 68.1381 142.132V138.132ZM724.555 122.426C724.555 130.818 716.486 138.132 705.85 138.132V142.132C718.085 142.132 728.555 133.592 728.555 122.426H724.555ZM705.85 106.721C716.486 106.721 724.555 114.035 724.555 122.426H728.555C728.555 111.261 718.085 102.721 705.85 102.721V106.721ZM687.145 122.426C687.145 114.035 695.215 106.721 705.85 106.721V102.721C693.616 102.721 683.145 111.261 683.145 122.426H687.145ZM705.85 138.132C695.215 138.132 687.145 130.818 687.145 122.426H683.145C683.145 133.591 693.616 142.132 705.85 142.132V138.132Z" fill="url(#paint11_linear_155_21)" mask="url(#path-11-inside-4_155_21)"/>
<rect x="300" y="219.667" width="175" height="11.2568" rx="3" fill="url(#paint12_linear_155_21)"/>
<mask id="path-14-inside-5_155_21" fill="white">
<path fill-rule="evenodd" clip-rule="evenodd" d="M623.442 16.3174C625.252 13.789 628.786 13.2433 631.274 15.1082L680.935 52.3326C683.546 54.2893 684.114 57.973 682.216 60.6258L675.615 69.8474C673.657 72.584 669.831 73.1747 667.138 71.1562L615.051 32.1135C614.013 31.3352 612.75 30.9145 611.452 30.9145H555C551.686 30.9145 549 28.2282 549 24.9145V24.6343C549 21.3206 551.686 18.6343 555 18.6343H618.934C620.723 18.6343 622.401 17.7716 623.442 16.3174ZM141.972 15.1082C144.46 13.2433 147.995 13.789 149.805 16.3174C150.845 17.7716 152.524 18.6343 154.312 18.6343H218.246C221.56 18.6343 224.246 21.3206 224.246 24.6343V24.9145C224.246 28.2282 221.56 30.9145 218.246 30.9145H161.794C160.497 30.9145 159.234 31.3352 158.195 32.1135L106.109 71.1562C103.416 73.1747 99.5898 72.584 97.6311 69.8474L91.0307 60.6258C89.1319 57.973 89.7007 54.2893 92.311 52.3326L141.972 15.1082ZM141.972 233.972C144.46 235.837 147.995 235.291 149.805 232.763C150.845 231.309 152.524 230.446 154.312 230.446H218.246C221.56 230.446 224.246 227.76 224.246 224.446V224.166C224.246 220.852 221.56 218.166 218.246 218.166H161.794C160.497 218.166 159.234 217.745 158.195 216.967L106.109 177.924C103.416 175.906 99.5898 176.496 97.6311 179.233L91.0307 188.454C89.1319 191.107 89.7007 194.791 92.311 196.748L141.972 233.972ZM631.274 233.972C628.786 235.837 625.252 235.291 623.442 232.763C622.401 231.309 620.722 230.446 618.934 230.446H555C551.686 230.446 549 227.76 549 224.446V224.166C549 220.852 551.686 218.166 555 218.166H611.452C612.75 218.166 614.013 217.745 615.051 216.967L667.138 177.924C669.831 175.906 673.657 176.496 675.615 179.233L682.216 188.454C684.114 191.107 683.546 194.791 680.935 196.748L631.274 233.972Z"/>
</mask>
<path fill-rule="evenodd" clip-rule="evenodd" d="M623.442 16.3174C625.252 13.789 628.786 13.2433 631.274 15.1082L680.935 52.3326C683.546 54.2893 684.114 57.973 682.216 60.6258L675.615 69.8474C673.657 72.584 669.831 73.1747 667.138 71.1562L615.051 32.1135C614.013 31.3352 612.75 30.9145 611.452 30.9145H555C551.686 30.9145 549 28.2282 549 24.9145V24.6343C549 21.3206 551.686 18.6343 555 18.6343H618.934C620.723 18.6343 622.401 17.7716 623.442 16.3174ZM141.972 15.1082C144.46 13.2433 147.995 13.789 149.805 16.3174C150.845 17.7716 152.524 18.6343 154.312 18.6343H218.246C221.56 18.6343 224.246 21.3206 224.246 24.6343V24.9145C224.246 28.2282 221.56 30.9145 218.246 30.9145H161.794C160.497 30.9145 159.234 31.3352 158.195 32.1135L106.109 71.1562C103.416 73.1747 99.5898 72.584 97.6311 69.8474L91.0307 60.6258C89.1319 57.973 89.7007 54.2893 92.311 52.3326L141.972 15.1082ZM141.972 233.972C144.46 235.837 147.995 235.291 149.805 232.763C150.845 231.309 152.524 230.446 154.312 230.446H218.246C221.56 230.446 224.246 227.76 224.246 224.446V224.166C224.246 220.852 221.56 218.166 218.246 218.166H161.794C160.497 218.166 159.234 217.745 158.195 216.967L106.109 177.924C103.416 175.906 99.5898 176.496 97.6311 179.233L91.0307 188.454C89.1319 191.107 89.7007 194.791 92.311 196.748L141.972 233.972ZM631.274 233.972C628.786 235.837 625.252 235.291 623.442 232.763C622.401 231.309 620.722 230.446 618.934 230.446H555C551.686 230.446 549 227.76 549 224.446V224.166C549 220.852 551.686 218.166 555 218.166H611.452C612.75 218.166 614.013 217.745 615.051 216.967L667.138 177.924C669.831 175.906 673.657 176.496 675.615 179.233L682.216 188.454C684.114 191.107 683.546 194.791 680.935 196.748L631.274 233.972Z" fill="url(#paint13_linear_155_21)"/>
<path d="M631.274 15.1082L630.675 15.9083L630.675 15.9083L631.274 15.1082ZM623.442 16.3174L622.629 15.7353L622.629 15.7353L623.442 16.3174ZM680.935 52.3326L681.535 51.5325L681.535 51.5325L680.935 52.3326ZM682.216 60.6258L681.403 60.0438L681.403 60.0438L682.216 60.6258ZM675.615 69.8474L676.429 70.4294L676.429 70.4294L675.615 69.8474ZM667.138 71.1562L666.538 71.9564L666.538 71.9564L667.138 71.1562ZM615.051 32.1135L614.451 32.9137L614.451 32.9137L615.051 32.1135ZM149.805 16.3174L148.991 16.8994L148.991 16.8994L149.805 16.3174ZM141.972 15.1082L141.372 14.308L141.372 14.308L141.972 15.1082ZM158.195 32.1135L158.795 32.9137L158.795 32.9137L158.195 32.1135ZM106.109 71.1562L106.709 71.9564L106.709 71.9564L106.109 71.1562ZM97.6311 69.8474L96.8179 70.4294L96.8179 70.4294L97.6311 69.8474ZM91.0307 60.6258L90.2175 61.2078L90.2175 61.2078L91.0307 60.6258ZM92.311 52.3326L92.9108 53.1328L92.9108 53.1328L92.311 52.3326ZM149.805 232.763L150.618 233.345L150.618 233.345L149.805 232.763ZM141.972 233.972L142.572 233.172L142.572 233.172L141.972 233.972ZM158.195 216.967L157.596 217.767L157.596 217.767L158.195 216.967ZM106.109 177.924L105.509 178.724L105.509 178.724L106.109 177.924ZM97.6311 179.233L96.8179 178.651L96.8179 178.651L97.6311 179.233ZM91.0307 188.454L90.2175 187.872L90.2175 187.872L91.0307 188.454ZM92.311 196.748L92.9108 195.947L92.9108 195.947L92.311 196.748ZM623.442 232.763L622.629 233.345L622.629 233.345L623.442 232.763ZM631.274 233.972L630.675 233.172L630.675 233.172L631.274 233.972ZM615.051 216.967L615.651 217.767L615.651 217.767L615.051 216.967ZM667.138 177.924L666.538 177.124L666.538 177.124L667.138 177.924ZM675.615 179.233L676.429 178.651L676.429 178.651L675.615 179.233ZM682.216 188.454L681.403 189.036L681.403 189.036L682.216 188.454ZM680.935 196.748L680.336 195.947L680.336 195.947L680.935 196.748ZM631.874 14.308C628.937 12.1067 624.765 12.7509 622.629 15.7353L624.255 16.8994C625.738 14.8271 628.635 14.3799 630.675 15.9083L631.874 14.308ZM681.535 51.5325L631.874 14.308L630.675 15.9083L680.336 53.1328L681.535 51.5325ZM683.029 61.2078C685.244 58.113 684.581 53.8152 681.535 51.5325L680.336 53.1328C682.511 54.7633 682.985 57.8331 681.403 60.0438L683.029 61.2078ZM676.429 70.4294L683.029 61.2078L681.403 60.0438L674.802 69.2654L676.429 70.4294ZM666.538 71.9564C669.68 74.3113 674.143 73.6221 676.429 70.4294L674.802 69.2653C673.17 71.5459 669.981 72.0381 667.737 70.356L666.538 71.9564ZM614.451 32.9137L666.538 71.9564L667.737 70.356L615.651 31.3134L614.451 32.9137ZM611.452 31.9145C612.534 31.9145 613.586 32.2651 614.451 32.9137L615.651 31.3134C614.439 30.4053 612.966 29.9145 611.452 29.9145V31.9145ZM555 31.9145H611.452V29.9145H555V31.9145ZM548 24.9145C548 28.7805 551.134 31.9145 555 31.9145V29.9145C552.239 29.9145 550 27.6759 550 24.9145H548ZM548 24.6343V24.9145H550V24.6343H548ZM555 17.6343C551.134 17.6343 548 20.7683 548 24.6343H550C550 21.8729 552.239 19.6343 555 19.6343V17.6343ZM618.934 17.6343H555V19.6343H618.934V17.6343ZM622.629 15.7353C621.776 16.9272 620.4 17.6343 618.934 17.6343V19.6343C621.045 19.6343 623.026 18.6159 624.255 16.8994L622.629 15.7353ZM150.618 15.7353C148.482 12.7509 144.309 12.1067 141.372 14.308L142.572 15.9083C144.611 14.3799 147.508 14.8271 148.991 16.8994L150.618 15.7353ZM154.312 17.6343C152.847 17.6343 151.471 16.9272 150.618 15.7353L148.991 16.8994C150.22 18.6159 152.201 19.6343 154.312 19.6343V17.6343ZM218.246 17.6343H154.312V19.6343H218.246V17.6343ZM225.246 24.6343C225.246 20.7683 222.112 17.6343 218.246 17.6343V19.6343C221.008 19.6343 223.246 21.8729 223.246 24.6343H225.246ZM225.246 24.9145V24.6343H223.246V24.9145H225.246ZM218.246 31.9145C222.112 31.9145 225.246 28.7805 225.246 24.9145H223.246C223.246 27.6759 221.008 29.9145 218.246 29.9145V31.9145ZM161.794 31.9145H218.246V29.9145H161.794V31.9145ZM158.795 32.9137C159.661 32.2651 160.713 31.9145 161.794 31.9145V29.9145C160.28 29.9145 158.807 30.4053 157.596 31.3134L158.795 32.9137ZM106.709 71.9564L158.795 32.9137L157.596 31.3134L105.509 70.356L106.709 71.9564ZM96.8179 70.4294C99.1031 73.6221 103.567 74.3113 106.709 71.9564L105.509 70.356C103.265 72.0381 100.077 71.5459 98.4442 69.2653L96.8179 70.4294ZM90.2175 61.2078L96.8179 70.4294L98.4442 69.2653L91.8438 60.0438L90.2175 61.2078ZM91.7112 51.5325C88.6658 53.8152 88.0023 58.1129 90.2175 61.2078L91.8438 60.0438C90.2616 57.8331 90.7355 54.7633 92.9108 53.1328L91.7112 51.5325ZM141.372 14.308L91.7112 51.5325L92.9108 53.1328L142.572 15.9083L141.372 14.308ZM148.991 232.181C147.508 234.253 144.611 234.7 142.572 233.172L141.372 234.772C144.309 236.973 148.482 236.329 150.618 233.345L148.991 232.181ZM154.312 229.446C152.201 229.446 150.22 230.464 148.991 232.181L150.618 233.345C151.471 232.153 152.847 231.446 154.312 231.446V229.446ZM218.246 229.446H154.312V231.446H218.246V229.446ZM223.246 224.446C223.246 227.207 221.008 229.446 218.246 229.446V231.446C222.112 231.446 225.246 228.312 225.246 224.446H223.246ZM223.246 224.166V224.446H225.246V224.166H223.246ZM218.246 219.166C221.008 219.166 223.246 221.404 223.246 224.166H225.246C225.246 220.3 222.112 217.166 218.246 217.166V219.166ZM161.794 219.166H218.246V217.166H161.794V219.166ZM157.596 217.767C158.807 218.675 160.28 219.166 161.794 219.166V217.166C160.713 217.166 159.661 216.815 158.795 216.167L157.596 217.767ZM105.509 178.724L157.596 217.767L158.795 216.167L106.709 177.124L105.509 178.724ZM98.4442 179.815C100.077 177.534 103.265 177.042 105.509 178.724L106.709 177.124C103.567 174.769 99.1031 175.458 96.8179 178.651L98.4442 179.815ZM91.8438 189.036L98.4442 179.815L96.8179 178.651L90.2175 187.872L91.8438 189.036ZM92.9108 195.947C90.7355 194.317 90.2616 191.247 91.8438 189.036L90.2175 187.872C88.0023 190.967 88.6658 195.265 91.7112 197.548L92.9108 195.947ZM142.572 233.172L92.9108 195.947L91.7112 197.548L141.372 234.772L142.572 233.172ZM622.629 233.345C624.765 236.329 628.937 236.973 631.874 234.772L630.675 233.172C628.635 234.7 625.738 234.253 624.255 232.181L622.629 233.345ZM618.934 231.446C620.4 231.446 621.776 232.153 622.629 233.345L624.255 232.181C623.026 230.464 621.045 229.446 618.934 229.446V231.446ZM555 231.446H618.934V229.446H555V231.446ZM548 224.446C548 228.312 551.134 231.446 555 231.446V229.446C552.239 229.446 550 227.207 550 224.446H548ZM548 224.166V224.446H550V224.166H548ZM555 217.166C551.134 217.166 548 220.3 548 224.166H550C550 221.404 552.239 219.166 555 219.166V217.166ZM611.452 217.166H555V219.166H611.452V217.166ZM614.451 216.166C613.586 216.815 612.534 217.166 611.452 217.166V219.166C612.966 219.166 614.439 218.675 615.651 217.767L614.451 216.166ZM666.538 177.124L614.451 216.166L615.651 217.767L667.737 178.724L666.538 177.124ZM676.429 178.651C674.143 175.458 669.68 174.769 666.538 177.124L667.737 178.724C669.981 177.042 673.17 177.534 674.802 179.815L676.429 178.651ZM683.029 187.872L676.429 178.651L674.802 179.815L681.403 189.036L683.029 187.872ZM681.535 197.548C684.581 195.265 685.244 190.967 683.029 187.872L681.403 189.036C682.985 191.247 682.511 194.317 680.336 195.947L681.535 197.548ZM631.874 234.772L681.535 197.548L680.336 195.947L630.675 233.172L631.874 234.772Z" fill="url(#paint14_linear_155_21)" mask="url(#path-14-inside-5_155_21)"/>
<path d="M252.466 117.029V90.3231C238.942 90.3231 233.146 97.2972 233.146 105.243C233.146 113.554 233.146 113.554 233.146 153.041L252.466 136.773V126.226L286.104 126.214V153.017C299.645 153.005 305.423 146.395 305.423 138.085C305.423 129.774 305.423 129.774 305.423 90.2866L286.104 106.92V117.017L252.466 117.029ZM363.522 90.2623L313.186 133.614V152.908L372.457 102.935V128.851L346.047 128.863L336.456 136.724L372.457 136.712V152.883C381.531 152.871 387.309 146.711 387.309 141.888C387.309 137.064 387.309 90.2502 387.309 90.2502L363.522 90.2623ZM440.784 124.44L468.522 99.8608V90.2137C468.522 90.2137 429.744 90.2259 414.771 90.238C401.23 90.238 395.451 96.7626 395.451 105.158C395.451 113.116 395.451 113.116 395.451 153.041L414.771 136.335V126.238V124.452V116.944V101.586L454.188 101.562H454.843L437.507 116.932L421.206 131.062L445.252 153.017L468.522 153.005L436.851 124.44H440.784ZM549.597 133.589L499.917 90.2866L476.785 90.2988V102.084V117.004V136.748V137.647V152.92L496.105 136.736V102.619L536.574 136.724L499.917 136.736L480.735 152.92L530.277 152.896C552.219 152.883 549.597 141.086 549.597 133.589Z" fill="#28F4D5"/>
<defs>
<linearGradient id="paint0_linear_155_21" x1="709.991" y1="68.0221" x2="709.991" y2="176.83" gradientUnits="userSpaceOnUse">
<stop offset="0.015"/>
<stop offset="0.495" stop-color="#2A1C46"/>
<stop offset="1"/>
</linearGradient>
<linearGradient id="paint1_linear_155_21" x1="387.371" y1="68.0221" x2="387.371" y2="176.83" gradientUnits="userSpaceOnUse">
<stop stop-color="#06C7C7"/>
<stop offset="1" stop-color="#800894" stop-opacity="0"/>
</linearGradient>
<linearGradient id="paint2_linear_155_21" x1="387.371" y1="99.5701" x2="387.371" y2="145.282" gradientUnits="userSpaceOnUse">
<stop stop-color="#151F2D"/>
<stop offset="1" stop-color="#3E1556"/>
</linearGradient>
<linearGradient id="paint3_linear_155_21" x1="387.371" y1="99.5701" x2="387.371" y2="145.282" gradientUnits="userSpaceOnUse">
<stop/>
<stop offset="1" stop-color="#0EF1FF"/>
</linearGradient>
<linearGradient id="paint4_linear_155_21" x1="387.63" y1="19.0906" x2="387.72" y2="192.604" gradientUnits="userSpaceOnUse">
<stop offset="0.04"/>
<stop offset="0.52" stop-color="#1B476F"/>
<stop offset="1" stop-color="#0F0215"/>
</linearGradient>
<linearGradient id="paint5_linear_155_21" x1="387.63" y1="19.0906" x2="387.63" y2="225.762" gradientUnits="userSpaceOnUse">
<stop stop-color="#24E5FF"/>
<stop offset="0.64" stop-color="#07121F"/>
<stop offset="0.99" stop-color="#39011C"/>
</linearGradient>
<linearGradient id="paint6_linear_155_21" x1="387.371" y1="33.8988" x2="387.371" y2="212.241" gradientUnits="userSpaceOnUse">
<stop offset="0.035" stop-color="#0E1E24"/>
<stop offset="0.57" stop-color="#240D43"/>
<stop offset="1" stop-color="#071A2C"/>
</linearGradient>
<linearGradient id="paint7_linear_155_21" x1="389.253" y1="-13.745" x2="389.253" y2="358.714" gradientUnits="userSpaceOnUse">
<stop stop-color="#4893D9"/>
<stop offset="0.354219" stop-color="#030404"/>
<stop offset="0.95" stop-color="#A10DA4"/>
</linearGradient>
<linearGradient id="paint8_linear_155_21" x1="389.253" y1="56.4331" x2="389.253" y2="154.296" gradientUnits="userSpaceOnUse">
<stop stop-color="#00C9BD"/>
<stop offset="1" stop-color="#118780" stop-opacity="0"/>
</linearGradient>
<linearGradient id="paint9_linear_155_21" x1="216.084" y1="0" x2="216.084" y2="124.904" gradientUnits="userSpaceOnUse">
<stop stop-color="#00C9BD"/>
<stop offset="1" stop-color="#118780" stop-opacity="0"/>
</linearGradient>
<linearGradient id="paint10_linear_155_21" x1="386.994" y1="104.721" x2="386.994" y2="140.132" gradientUnits="userSpaceOnUse">
<stop offset="0.01" stop-color="#6A2276"/>
<stop offset="0.54" stop-color="#010002" stop-opacity="0.98"/>
<stop offset="0.96" stop-color="#590566" stop-opacity="0.98"/>
</linearGradient>
<linearGradient id="paint11_linear_155_21" x1="386.994" y1="104.721" x2="386.994" y2="140.132" gradientUnits="userSpaceOnUse">
<stop stop-color="#137A9A" stop-opacity="0"/>
<stop offset="1" stop-color="#0B98C5"/>
</linearGradient>
<linearGradient id="paint12_linear_155_21" x1="387.5" y1="219.667" x2="387.5" y2="230.924" gradientUnits="userSpaceOnUse">
<stop stop-color="#320A1B"/>
<stop offset="1" stop-color="#1F668E"/>
</linearGradient>
<linearGradient id="paint13_linear_155_21" x1="386.623" y1="14" x2="386.623" y2="235.08" gradientUnits="userSpaceOnUse">
<stop offset="0.03" stop-color="#0D1719"/>
<stop offset="0.315" stop-color="#0E1112"/>
<stop offset="0.695" stop-color="#121827" stop-opacity="0.9814"/>
<stop offset="1" stop-color="#23A5A5" stop-opacity="0.96"/>
</linearGradient>
<linearGradient id="paint14_linear_155_21" x1="386.623" y1="14" x2="386.623" y2="235.08" gradientUnits="userSpaceOnUse">
<stop stop-color="#0F789A"/>
<stop offset="1" stop-color="#370E2E"/>
</linearGradient>
</defs>
</svg>
