<svg width="775" height="291" viewBox="0 0 775 291" fill="none" xmlns="http://www.w3.org/2000/svg">
<mask id="path-1-inside-1_155_22" fill="white">
<path fill-rule="evenodd" clip-rule="evenodd" d="M12 92.0222C5.37258 92.0222 0 97.3948 0 104.022V188.83C0 195.458 5.37258 200.83 12 200.83H117.5C124.127 200.83 129.5 195.458 129.5 188.83V104.022C129.5 97.3947 124.127 92.0222 117.5 92.0222H12ZM657.241 92.0222C650.614 92.0222 645.241 97.3948 645.241 104.022V188.83C645.241 195.458 650.614 200.83 657.241 200.83H762.741C769.369 200.83 774.741 195.458 774.741 188.83V104.022C774.741 97.3947 769.369 92.0222 762.741 92.0222H657.241Z"/>
</mask>
<path fill-rule="evenodd" clip-rule="evenodd" d="M12 92.0222C5.37258 92.0222 0 97.3948 0 104.022V188.83C0 195.458 5.37258 200.83 12 200.83H117.5C124.127 200.83 129.5 195.458 129.5 188.83V104.022C129.5 97.3947 124.127 92.0222 117.5 92.0222H12ZM657.241 92.0222C650.614 92.0222 645.241 97.3948 645.241 104.022V188.83C645.241 195.458 650.614 200.83 657.241 200.83H762.741C769.369 200.83 774.741 195.458 774.741 188.83V104.022C774.741 97.3947 769.369 92.0222 762.741 92.0222H657.241Z" fill="url(#paint0_linear_155_22)"/>
<path d="M3 104.022C3 99.0516 7.02944 95.0222 12 95.0222V89.0222C3.71573 89.0222 -3 95.7379 -3 104.022H3ZM3 188.83V104.022H-3V188.83H3ZM12 197.83C7.02943 197.83 3 193.801 3 188.83H-3C-3 197.115 3.71572 203.83 12 203.83V197.83ZM117.5 197.83H12V203.83H117.5V197.83ZM126.5 188.83C126.5 193.801 122.471 197.83 117.5 197.83V203.83C125.784 203.83 132.5 197.115 132.5 188.83H126.5ZM126.5 104.022V188.83H132.5V104.022H126.5ZM117.5 95.0222C122.471 95.0222 126.5 99.0516 126.5 104.022H132.5C132.5 95.7379 125.784 89.0222 117.5 89.0222V95.0222ZM12 95.0222H117.5V89.0222H12V95.0222ZM648.241 104.022C648.241 99.0516 652.271 95.0222 657.241 95.0222V89.0222C648.957 89.0222 642.241 95.7379 642.241 104.022H648.241ZM648.241 188.83V104.022H642.241V188.83H648.241ZM657.241 197.83C652.271 197.83 648.241 193.801 648.241 188.83H642.241C642.241 197.115 648.957 203.83 657.241 203.83V197.83ZM762.741 197.83H657.241V203.83H762.741V197.83ZM771.741 188.83C771.741 193.801 767.712 197.83 762.741 197.83V203.83C771.026 203.83 777.741 197.115 777.741 188.83H771.741ZM771.741 104.022V188.83H777.741V104.022H771.741ZM762.741 95.0222C767.712 95.0222 771.741 99.0516 771.741 104.022H777.741C777.741 95.7379 771.026 89.0222 762.741 89.0222V95.0222ZM657.241 95.0222H762.741V89.0222H657.241V95.0222Z" fill="url(#paint1_linear_155_22)" mask="url(#path-1-inside-1_155_22)"/>
<mask id="path-3-inside-2_155_22" fill="white">
<path fill-rule="evenodd" clip-rule="evenodd" d="M65.0189 123.57C52.3958 123.57 42.1628 133.803 42.1628 146.426C42.1628 159.049 52.3958 169.282 65.0189 169.282H116.432C129.055 169.282 139.288 159.049 139.288 146.426C139.288 133.803 129.055 123.57 116.432 123.57H65.0189ZM658.31 123.57C645.687 123.57 635.453 133.803 635.453 146.426C635.453 159.049 645.687 169.282 658.31 169.282H709.722C722.345 169.282 732.578 159.049 732.578 146.426C732.578 133.803 722.345 123.57 709.722 123.57H658.31Z"/>
</mask>
<path fill-rule="evenodd" clip-rule="evenodd" d="M65.0189 123.57C52.3958 123.57 42.1628 133.803 42.1628 146.426C42.1628 159.049 52.3958 169.282 65.0189 169.282H116.432C129.055 169.282 139.288 159.049 139.288 146.426C139.288 133.803 129.055 123.57 116.432 123.57H65.0189ZM658.31 123.57C645.687 123.57 635.453 133.803 635.453 146.426C635.453 159.049 645.687 169.282 658.31 169.282H709.722C722.345 169.282 732.578 159.049 732.578 146.426C732.578 133.803 722.345 123.57 709.722 123.57H658.31Z" fill="url(#paint2_linear_155_22)"/>
<path d="M43.1628 146.426C43.1628 134.355 52.9481 124.57 65.0189 124.57V122.57C51.8435 122.57 41.1628 133.251 41.1628 146.426H43.1628ZM65.0189 168.282C52.9481 168.282 43.1628 158.497 43.1628 146.426H41.1628C41.1628 159.602 51.8436 170.282 65.0189 170.282V168.282ZM116.432 168.282H65.0189V170.282H116.432V168.282ZM138.288 146.426C138.288 158.497 128.502 168.282 116.432 168.282V170.282C129.607 170.282 140.288 159.602 140.288 146.426H138.288ZM116.432 124.57C128.502 124.57 138.288 134.355 138.288 146.426H140.288C140.288 133.251 129.607 122.57 116.432 122.57V124.57ZM65.0189 124.57H116.432V122.57H65.0189V124.57ZM636.453 146.426C636.453 134.355 646.239 124.57 658.31 124.57V122.57C645.134 122.57 634.453 133.251 634.453 146.426H636.453ZM658.31 168.282C646.239 168.282 636.453 158.497 636.453 146.426H634.453C634.453 159.602 645.134 170.282 658.31 170.282V168.282ZM709.722 168.282H658.31V170.282H709.722V168.282ZM731.578 146.426C731.578 158.497 721.793 168.282 709.722 168.282V170.282C722.898 170.282 733.578 159.602 733.578 146.426H731.578ZM709.722 124.57C721.793 124.57 731.578 134.355 731.578 146.426H733.578C733.578 133.251 722.898 122.57 709.722 122.57V124.57ZM658.31 124.57H709.722V122.57H658.31V124.57Z" fill="url(#paint3_linear_155_22)" mask="url(#path-3-inside-2_155_22)"/>
<mask id="path-5-inside-3_155_22" fill="white">
<path fill-rule="evenodd" clip-rule="evenodd" d="M103.785 124.396L110.445 124.612C112.588 124.681 116.701 133.714 116.701 135.858V135.858V157.639V157.639C116.701 160.581 113.461 168.22 110.52 168.315L103.785 168.534C81.5036 169.256 70.3584 195.815 87.0192 208.487L130.351 241.443C131.208 242.094 132.099 242.673 133.018 243.18C137.983 245.922 143.399 248.808 149.013 249.618C149.671 249.713 150.344 249.762 151.029 249.762H623.712C624.277 249.762 624.834 249.728 625.381 249.663C631.172 248.975 636.808 246.077 641.955 243.335C642.975 242.791 643.963 242.161 644.909 241.442L688.241 208.486C704.902 195.815 693.757 169.255 671.476 168.533L664.301 168.301C662.316 168.236 658.041 158.981 658.041 156.995V156.995V135.858V135.858C658.041 133.674 662.112 124.7 664.295 124.629L671.476 124.396C693.757 123.674 704.903 97.1147 688.242 84.4433L644.91 51.4871C644.008 50.8015 643.068 50.1968 642.098 49.6705C636.932 46.8687 631.263 43.9084 625.429 43.1949C624.867 43.126 624.294 43.0906 623.712 43.0906H151.029C150.327 43.0906 149.637 43.1423 148.962 43.2421C143.305 44.0792 137.857 47.0288 132.872 49.8312C132.005 50.3188 131.162 50.8702 130.351 51.4871L87.0192 84.4433C70.3584 97.1147 81.5036 123.674 103.785 124.396Z"/>
</mask>
<path fill-rule="evenodd" clip-rule="evenodd" d="M103.785 124.396L110.445 124.612C112.588 124.681 116.701 133.714 116.701 135.858V135.858V157.639V157.639C116.701 160.581 113.461 168.22 110.52 168.315L103.785 168.534C81.5036 169.256 70.3584 195.815 87.0192 208.487L130.351 241.443C131.208 242.094 132.099 242.673 133.018 243.18C137.983 245.922 143.399 248.808 149.013 249.618C149.671 249.713 150.344 249.762 151.029 249.762H623.712C624.277 249.762 624.834 249.728 625.381 249.663C631.172 248.975 636.808 246.077 641.955 243.335C642.975 242.791 643.963 242.161 644.909 241.442L688.241 208.486C704.902 195.815 693.757 169.255 671.476 168.533L664.301 168.301C662.316 168.236 658.041 158.981 658.041 156.995V156.995V135.858V135.858C658.041 133.674 662.112 124.7 664.295 124.629L671.476 124.396C693.757 123.674 704.903 97.1147 688.242 84.4433L644.91 51.4871C644.008 50.8015 643.068 50.1968 642.098 49.6705C636.932 46.8687 631.263 43.9084 625.429 43.1949C624.867 43.126 624.294 43.0906 623.712 43.0906H151.029C150.327 43.0906 149.637 43.1423 148.962 43.2421C143.305 44.0792 137.857 47.0288 132.872 49.8312C132.005 50.3188 131.162 50.8702 130.351 51.4871L87.0192 84.4433C70.3584 97.1147 81.5036 123.674 103.785 124.396Z" fill="url(#paint4_linear_155_22)"/>
<path d="M103.785 124.396L103.623 129.394L103.623 129.394L103.785 124.396ZM103.785 168.534L103.623 163.536L103.623 163.536L103.785 168.534ZM87.0192 208.487L90.046 204.507L90.046 204.507L87.0192 208.487ZM130.351 241.443L133.378 237.463L133.378 237.463L130.351 241.443ZM644.909 241.442L641.882 237.462L641.882 237.462L644.909 241.442ZM688.241 208.486L685.214 204.507L685.214 204.507L688.241 208.486ZM671.476 168.533L671.638 163.536L671.638 163.536L671.476 168.533ZM671.476 124.396L671.638 129.394L671.638 129.394L671.476 124.396ZM688.242 84.4433L691.269 80.4635L691.269 80.4635L688.242 84.4433ZM644.91 51.4871L647.937 47.5074L647.937 47.5074L644.91 51.4871ZM130.351 51.4871L133.378 55.4669L133.378 55.4669L130.351 51.4871ZM87.0192 84.4433L83.9924 80.4635L83.9924 80.4635L87.0192 84.4433ZM664.295 124.629L664.133 119.631L664.133 119.631L664.295 124.629ZM642.098 49.6705L639.714 54.0658L642.098 49.6705ZM625.381 249.663L624.791 244.698L625.381 249.663ZM641.955 243.335L644.306 247.748L641.955 243.335ZM133.018 243.18L130.601 247.557L133.018 243.18ZM149.013 249.618L149.727 244.669L149.013 249.618ZM110.52 168.315L110.359 163.318L110.52 168.315ZM664.301 168.301L664.139 173.298L664.301 168.301ZM110.607 119.615L103.947 119.399L103.623 129.394L110.283 129.609L110.607 119.615ZM121.701 157.639V135.858H111.701V157.639H121.701ZM103.947 173.531L110.682 173.313L110.359 163.318L103.623 163.536L103.947 173.531ZM90.046 204.507C83.813 199.766 82.657 192.523 85.4093 185.964C88.1906 179.336 94.8837 173.825 103.947 173.531L103.623 163.536C90.4046 163.965 80.3846 172.094 76.1882 182.094C71.9628 192.164 73.5646 204.536 83.9924 212.466L90.046 204.507ZM133.378 237.463L90.046 204.507L83.9924 212.466L127.324 245.423L133.378 237.463ZM135.435 238.803C134.726 238.412 134.039 237.966 133.378 237.463L127.324 245.423C128.376 246.223 129.472 246.933 130.601 247.557L135.435 238.803ZM151.029 244.762C150.584 244.762 150.149 244.73 149.727 244.669L148.299 254.567C149.193 254.695 150.105 254.762 151.029 254.762V244.762ZM623.712 244.762H151.029V254.762H623.712V244.762ZM624.791 244.698C624.439 244.74 624.079 244.762 623.712 244.762V254.762C624.475 254.762 625.229 254.717 625.971 254.628L624.791 244.698ZM641.882 237.462C641.152 238.017 640.391 238.503 639.603 238.922L644.306 247.748C645.56 247.079 646.774 246.305 647.935 245.422L641.882 237.462ZM685.214 204.507L641.882 237.462L647.935 245.422L691.268 212.466L685.214 204.507ZM671.314 173.531C680.377 173.824 687.07 179.335 689.851 185.964C692.603 192.522 691.447 199.766 685.214 204.507L691.268 212.466C701.696 204.535 703.298 192.164 699.072 182.094C694.876 172.094 684.856 163.964 671.638 163.536L671.314 173.531ZM664.139 173.298L671.314 173.531L671.638 163.536L664.463 163.303L664.139 173.298ZM653.041 135.858V156.995H663.041V135.858H653.041ZM671.314 119.399L664.133 119.631L664.457 129.626L671.638 129.394L671.314 119.399ZM685.215 88.4231C691.448 93.1636 692.604 100.407 689.852 106.966C687.07 113.594 680.377 119.105 671.314 119.399L671.638 129.394C684.856 128.965 694.876 120.836 699.073 110.836C703.298 100.766 701.696 88.3944 691.269 80.4635L685.215 88.4231ZM641.883 55.4669L685.215 88.4231L691.269 80.4635L647.937 47.5074L641.883 55.4669ZM639.714 54.0658C640.463 54.4715 641.187 54.9378 641.883 55.4669L647.937 47.5074C646.829 46.6653 645.674 45.922 644.482 45.2753L639.714 54.0658ZM623.712 48.0906C624.09 48.0906 624.461 48.1136 624.822 48.1579L626.036 38.2318C625.273 38.1384 624.497 38.0906 623.712 38.0906V48.0906ZM151.029 48.0906H623.712V38.0906H151.029V48.0906ZM149.694 48.1882C150.127 48.1242 150.573 48.0906 151.029 48.0906V38.0906C150.081 38.0906 149.146 38.1604 148.23 38.2959L149.694 48.1882ZM133.378 55.4669C134.004 54.9907 134.653 54.5656 135.322 54.1897L130.422 45.4727C129.356 46.072 128.321 46.7497 127.324 47.5074L133.378 55.4669ZM90.046 88.4231L133.378 55.4669L127.324 47.5074L83.9924 80.4635L90.046 88.4231ZM103.947 119.399C94.8837 119.105 88.1906 113.594 85.4093 106.966C82.657 100.407 83.813 93.1636 90.046 88.4231L83.9924 80.4635C73.5646 88.3944 71.9628 100.766 76.1882 110.836C80.3846 120.836 90.4046 128.965 103.623 129.394L103.947 119.399ZM148.23 38.2959C141.523 39.2885 135.301 42.7298 130.422 45.4727L135.322 54.1897C140.413 51.3278 145.088 48.8698 149.694 48.1882L148.23 38.2959ZM663.041 135.858C663.041 136.215 662.981 136.316 663.066 135.984C663.13 135.731 663.243 135.363 663.413 134.893C663.753 133.953 664.244 132.816 664.801 131.726C665.373 130.608 665.923 129.716 666.344 129.176C666.56 128.897 666.626 128.864 666.525 128.945C666.522 128.947 665.781 129.583 664.457 129.626L664.133 119.631C662.263 119.692 660.917 120.624 660.274 121.139C659.532 121.733 658.922 122.43 658.45 123.037C657.493 124.267 656.616 125.768 655.897 127.175C655.163 128.611 654.501 130.131 654.009 131.491C653.607 132.602 653.041 134.331 653.041 135.858H663.041ZM644.482 45.2753C639.431 42.5359 632.956 39.0782 626.036 38.2318L624.822 48.1579C629.57 48.7386 634.433 51.2014 639.714 54.0658L644.482 45.2753ZM110.283 129.609C109.557 129.586 109.017 129.383 108.716 129.239C108.414 129.095 108.234 128.955 108.177 128.909C108.08 128.83 108.148 128.867 108.368 129.152C108.793 129.703 109.348 130.607 109.924 131.733C110.486 132.832 110.983 133.976 111.327 134.919C111.499 135.391 111.613 135.759 111.678 136.011C111.765 136.347 111.701 136.232 111.701 135.858H121.701C121.701 134.947 121.508 134.081 121.361 133.513C121.193 132.86 120.969 132.17 120.722 131.493C120.227 130.137 119.562 128.617 118.828 127.181C118.108 125.772 117.233 124.271 116.285 123.042C115.817 122.437 115.213 121.74 114.481 121.146C113.856 120.639 112.502 119.676 110.607 119.615L110.283 129.609ZM625.971 254.628C632.838 253.813 639.277 250.427 644.306 247.748L639.603 238.922C634.339 241.727 629.507 244.138 624.791 244.698L625.971 254.628ZM130.601 247.557C135.458 250.239 141.644 253.607 148.299 254.567L149.727 244.669C145.153 244.009 140.509 241.605 135.435 238.803L130.601 247.557ZM111.701 157.639C111.701 157.586 111.703 157.694 111.646 157.994C111.592 158.274 111.502 158.634 111.371 159.059C111.107 159.915 110.72 160.877 110.267 161.758C109.797 162.672 109.357 163.3 109.056 163.626C108.604 164.115 109.04 163.361 110.359 163.318L110.682 173.313C113.471 173.223 115.415 171.478 116.398 170.416C117.531 169.19 118.452 167.707 119.16 166.331C119.884 164.923 120.491 163.418 120.926 162.011C121.333 160.693 121.701 159.109 121.701 157.639H111.701ZM664.463 163.303C665.283 163.33 665.879 163.579 666.181 163.734C666.49 163.892 666.67 164.042 666.717 164.082C666.798 164.152 666.718 164.097 666.487 163.789C666.044 163.196 665.47 162.246 664.876 161.088C664.296 159.956 663.779 158.784 663.42 157.83C663.239 157.35 663.12 156.981 663.052 156.734C662.956 156.379 663.041 156.548 663.041 156.995H653.041C653.041 157.938 653.259 158.831 653.404 159.363C653.578 160.002 653.808 160.682 654.06 161.35C654.564 162.692 655.24 164.21 655.977 165.648C656.7 167.061 657.567 168.561 658.484 169.784C658.933 170.384 659.512 171.077 660.208 171.674C660.751 172.139 662.137 173.233 664.139 173.298L664.463 163.303Z" fill="url(#paint5_linear_155_22)" mask="url(#path-5-inside-3_155_22)"/>
<rect x="143.805" y="57.8989" width="487.131" height="178.342" rx="28" fill="url(#paint6_linear_155_22)"/>
<rect x="162.628" y="76.5701" width="453.25" height="139.712" rx="16" fill="url(#paint7_linear_155_22)"/>
<rect x="184.203" y="82.4331" width="410.099" height="93.863" rx="21" stroke="url(#paint8_linear_155_22)" stroke-width="4"/>
<rect x="2" y="-2" width="428.169" height="120.904" rx="21" transform="matrix(1 0 0 -1 173.169 208.419)" stroke="url(#paint9_linear_155_22)" stroke-width="4"/>
<mask id="path-11-inside-4_155_22" fill="white">
<path fill-rule="evenodd" clip-rule="evenodd" d="M68.1381 164.132C79.5731 164.132 88.8431 156.205 88.8431 146.426C88.8431 136.648 79.5731 128.721 68.1381 128.721C56.7031 128.721 47.4332 136.648 47.4332 146.426C47.4332 156.205 56.7031 164.132 68.1381 164.132ZM705.85 164.132C717.285 164.132 726.555 156.205 726.555 146.426C726.555 136.648 717.285 128.721 705.85 128.721C694.415 128.721 685.145 136.648 685.145 146.426C685.145 156.205 694.415 164.132 705.85 164.132Z"/>
</mask>
<path fill-rule="evenodd" clip-rule="evenodd" d="M68.1381 164.132C79.5731 164.132 88.8431 156.205 88.8431 146.426C88.8431 136.648 79.5731 128.721 68.1381 128.721C56.7031 128.721 47.4332 136.648 47.4332 146.426C47.4332 156.205 56.7031 164.132 68.1381 164.132ZM705.85 164.132C717.285 164.132 726.555 156.205 726.555 146.426C726.555 136.648 717.285 128.721 705.85 128.721C694.415 128.721 685.145 136.648 685.145 146.426C685.145 156.205 694.415 164.132 705.85 164.132Z" fill="url(#paint10_linear_155_22)"/>
<path d="M86.8431 146.426C86.8431 154.818 78.7736 162.132 68.1381 162.132V166.132C80.3727 166.132 90.8431 157.591 90.8431 146.426H86.8431ZM68.1381 130.721C78.7736 130.721 86.8431 138.035 86.8431 146.426H90.8431C90.8431 135.261 80.3727 126.721 68.1381 126.721V130.721ZM49.4332 146.426C49.4332 138.035 57.5026 130.721 68.1381 130.721V126.721C55.9036 126.721 45.4332 135.261 45.4332 146.426H49.4332ZM68.1381 162.132C57.5026 162.132 49.4332 154.818 49.4332 146.426H45.4332C45.4332 157.591 55.9036 166.132 68.1381 166.132V162.132ZM724.555 146.426C724.555 154.818 716.486 162.132 705.85 162.132V166.132C718.085 166.132 728.555 157.591 728.555 146.426H724.555ZM705.85 130.721C716.486 130.721 724.555 138.035 724.555 146.426H728.555C728.555 135.261 718.085 126.721 705.85 126.721V130.721ZM687.145 146.426C687.145 138.035 695.215 130.721 705.85 130.721V126.721C693.616 126.721 683.145 135.261 683.145 146.426H687.145ZM705.85 162.132C695.215 162.132 687.145 154.818 687.145 146.426H683.145C683.145 157.591 693.616 166.132 705.85 166.132V162.132Z" fill="url(#paint11_linear_155_22)" mask="url(#path-11-inside-4_155_22)"/>
<rect x="300" y="243.667" width="175" height="11.2568" rx="3" fill="url(#paint12_linear_155_22)"/>
<mask id="path-14-inside-5_155_22" fill="white">
<path fill-rule="evenodd" clip-rule="evenodd" d="M623.442 40.3174C625.252 37.789 628.786 37.2433 631.274 39.1082L680.935 76.3326C683.546 78.2893 684.114 81.973 682.216 84.6258L675.615 93.8474C673.657 96.584 669.831 97.1747 667.138 95.1562L615.051 56.1135C614.013 55.3352 612.75 54.9145 611.452 54.9145H555C551.686 54.9145 549 52.2282 549 48.9145V48.6343C549 45.3206 551.686 42.6343 555 42.6343H618.934C620.723 42.6343 622.401 41.7716 623.442 40.3174ZM141.972 39.1082C144.46 37.2433 147.995 37.789 149.805 40.3174C150.845 41.7716 152.524 42.6343 154.312 42.6343H218.246C221.56 42.6343 224.246 45.3206 224.246 48.6343V48.9145C224.246 52.2282 221.56 54.9145 218.246 54.9145H161.794C160.497 54.9145 159.234 55.3352 158.195 56.1135L106.109 95.1562C103.416 97.1747 99.5898 96.584 97.6311 93.8474L91.0307 84.6258C89.1319 81.973 89.7007 78.2893 92.311 76.3326L141.972 39.1082ZM141.972 257.972C144.46 259.837 147.995 259.291 149.805 256.763C150.845 255.309 152.524 254.446 154.312 254.446H218.246C221.56 254.446 224.246 251.76 224.246 248.446V248.166C224.246 244.852 221.56 242.166 218.246 242.166H161.794C160.497 242.166 159.234 241.745 158.195 240.967L106.109 201.924C103.416 199.906 99.5898 200.496 97.6311 203.233L91.0307 212.454C89.1319 215.107 89.7007 218.791 92.311 220.748L141.972 257.972ZM631.274 257.972C628.786 259.837 625.252 259.291 623.442 256.763C622.401 255.309 620.722 254.446 618.934 254.446H555C551.686 254.446 549 251.76 549 248.446V248.166C549 244.852 551.686 242.166 555 242.166H611.452C612.75 242.166 614.013 241.745 615.051 240.967L667.138 201.924C669.831 199.906 673.657 200.496 675.615 203.233L682.216 212.454C684.114 215.107 683.546 218.791 680.935 220.748L631.274 257.972Z"/>
</mask>
<path fill-rule="evenodd" clip-rule="evenodd" d="M623.442 40.3174C625.252 37.789 628.786 37.2433 631.274 39.1082L680.935 76.3326C683.546 78.2893 684.114 81.973 682.216 84.6258L675.615 93.8474C673.657 96.584 669.831 97.1747 667.138 95.1562L615.051 56.1135C614.013 55.3352 612.75 54.9145 611.452 54.9145H555C551.686 54.9145 549 52.2282 549 48.9145V48.6343C549 45.3206 551.686 42.6343 555 42.6343H618.934C620.723 42.6343 622.401 41.7716 623.442 40.3174ZM141.972 39.1082C144.46 37.2433 147.995 37.789 149.805 40.3174C150.845 41.7716 152.524 42.6343 154.312 42.6343H218.246C221.56 42.6343 224.246 45.3206 224.246 48.6343V48.9145C224.246 52.2282 221.56 54.9145 218.246 54.9145H161.794C160.497 54.9145 159.234 55.3352 158.195 56.1135L106.109 95.1562C103.416 97.1747 99.5898 96.584 97.6311 93.8474L91.0307 84.6258C89.1319 81.973 89.7007 78.2893 92.311 76.3326L141.972 39.1082ZM141.972 257.972C144.46 259.837 147.995 259.291 149.805 256.763C150.845 255.309 152.524 254.446 154.312 254.446H218.246C221.56 254.446 224.246 251.76 224.246 248.446V248.166C224.246 244.852 221.56 242.166 218.246 242.166H161.794C160.497 242.166 159.234 241.745 158.195 240.967L106.109 201.924C103.416 199.906 99.5898 200.496 97.6311 203.233L91.0307 212.454C89.1319 215.107 89.7007 218.791 92.311 220.748L141.972 257.972ZM631.274 257.972C628.786 259.837 625.252 259.291 623.442 256.763C622.401 255.309 620.722 254.446 618.934 254.446H555C551.686 254.446 549 251.76 549 248.446V248.166C549 244.852 551.686 242.166 555 242.166H611.452C612.75 242.166 614.013 241.745 615.051 240.967L667.138 201.924C669.831 199.906 673.657 200.496 675.615 203.233L682.216 212.454C684.114 215.107 683.546 218.791 680.935 220.748L631.274 257.972Z" fill="url(#paint13_linear_155_22)"/>
<path d="M631.274 39.1082L630.675 39.9083L630.675 39.9083L631.274 39.1082ZM623.442 40.3174L622.629 39.7353L622.629 39.7353L623.442 40.3174ZM680.935 76.3326L681.535 75.5325L681.535 75.5325L680.935 76.3326ZM682.216 84.6258L681.403 84.0438L681.403 84.0438L682.216 84.6258ZM675.615 93.8474L676.429 94.4294L676.429 94.4294L675.615 93.8474ZM667.138 95.1562L666.538 95.9564L666.538 95.9564L667.138 95.1562ZM615.051 56.1135L614.451 56.9137L614.451 56.9137L615.051 56.1135ZM149.805 40.3174L148.991 40.8994L148.991 40.8994L149.805 40.3174ZM141.972 39.1082L141.372 38.308L141.372 38.308L141.972 39.1082ZM158.195 56.1135L158.795 56.9137L158.795 56.9137L158.195 56.1135ZM106.109 95.1562L106.709 95.9564L106.709 95.9564L106.109 95.1562ZM97.6311 93.8474L96.8179 94.4294L96.8179 94.4294L97.6311 93.8474ZM91.0307 84.6258L90.2175 85.2078L90.2175 85.2078L91.0307 84.6258ZM92.311 76.3326L92.9108 77.1328L92.9108 77.1328L92.311 76.3326ZM149.805 256.763L150.618 257.345L150.618 257.345L149.805 256.763ZM141.972 257.972L142.572 257.172L142.572 257.172L141.972 257.972ZM158.195 240.967L157.596 241.767L157.596 241.767L158.195 240.967ZM106.109 201.924L105.509 202.724L105.509 202.724L106.109 201.924ZM97.6311 203.233L96.8179 202.651L96.8179 202.651L97.6311 203.233ZM91.0307 212.454L90.2175 211.872L90.2175 211.872L91.0307 212.454ZM92.311 220.748L92.9108 219.947L92.9108 219.947L92.311 220.748ZM623.442 256.763L622.629 257.345L622.629 257.345L623.442 256.763ZM631.274 257.972L630.675 257.172L630.675 257.172L631.274 257.972ZM615.051 240.967L615.651 241.767L615.651 241.767L615.051 240.967ZM667.138 201.924L666.538 201.124L666.538 201.124L667.138 201.924ZM675.615 203.233L676.429 202.651L676.429 202.651L675.615 203.233ZM682.216 212.454L681.403 213.036L681.403 213.036L682.216 212.454ZM680.935 220.748L680.336 219.947L680.336 219.947L680.935 220.748ZM631.874 38.308C628.937 36.1067 624.765 36.7509 622.629 39.7353L624.255 40.8994C625.738 38.8271 628.635 38.3799 630.675 39.9083L631.874 38.308ZM681.535 75.5325L631.874 38.308L630.675 39.9083L680.336 77.1328L681.535 75.5325ZM683.029 85.2078C685.244 82.113 684.581 77.8152 681.535 75.5325L680.336 77.1328C682.511 78.7633 682.985 81.8331 681.403 84.0438L683.029 85.2078ZM676.429 94.4294L683.029 85.2078L681.403 84.0438L674.802 93.2654L676.429 94.4294ZM666.538 95.9564C669.68 98.3113 674.143 97.6221 676.429 94.4294L674.802 93.2653C673.17 95.5459 669.981 96.0381 667.737 94.356L666.538 95.9564ZM614.451 56.9137L666.538 95.9564L667.737 94.356L615.651 55.3134L614.451 56.9137ZM611.452 55.9145C612.534 55.9145 613.586 56.2651 614.451 56.9137L615.651 55.3134C614.439 54.4053 612.966 53.9145 611.452 53.9145V55.9145ZM555 55.9145H611.452V53.9145H555V55.9145ZM548 48.9145C548 52.7805 551.134 55.9145 555 55.9145V53.9145C552.239 53.9145 550 51.6759 550 48.9145H548ZM548 48.6343V48.9145H550V48.6343H548ZM555 41.6343C551.134 41.6343 548 44.7683 548 48.6343H550C550 45.8729 552.239 43.6343 555 43.6343V41.6343ZM618.934 41.6343H555V43.6343H618.934V41.6343ZM622.629 39.7353C621.776 40.9272 620.4 41.6343 618.934 41.6343V43.6343C621.045 43.6343 623.026 42.6159 624.255 40.8994L622.629 39.7353ZM150.618 39.7353C148.482 36.7509 144.309 36.1067 141.372 38.308L142.572 39.9083C144.611 38.3799 147.508 38.8271 148.991 40.8994L150.618 39.7353ZM154.312 41.6343C152.847 41.6343 151.471 40.9272 150.618 39.7353L148.991 40.8994C150.22 42.6159 152.201 43.6343 154.312 43.6343V41.6343ZM218.246 41.6343H154.312V43.6343H218.246V41.6343ZM225.246 48.6343C225.246 44.7683 222.112 41.6343 218.246 41.6343V43.6343C221.008 43.6343 223.246 45.8729 223.246 48.6343H225.246ZM225.246 48.9145V48.6343H223.246V48.9145H225.246ZM218.246 55.9145C222.112 55.9145 225.246 52.7805 225.246 48.9145H223.246C223.246 51.6759 221.008 53.9145 218.246 53.9145V55.9145ZM161.794 55.9145H218.246V53.9145H161.794V55.9145ZM158.795 56.9137C159.661 56.2651 160.713 55.9145 161.794 55.9145V53.9145C160.28 53.9145 158.807 54.4053 157.596 55.3134L158.795 56.9137ZM106.709 95.9564L158.795 56.9137L157.596 55.3134L105.509 94.356L106.709 95.9564ZM96.8179 94.4294C99.1031 97.6221 103.567 98.3113 106.709 95.9564L105.509 94.356C103.265 96.0381 100.077 95.5459 98.4442 93.2653L96.8179 94.4294ZM90.2175 85.2078L96.8179 94.4294L98.4442 93.2653L91.8438 84.0438L90.2175 85.2078ZM91.7112 75.5325C88.6658 77.8152 88.0023 82.1129 90.2175 85.2078L91.8438 84.0438C90.2616 81.8331 90.7355 78.7633 92.9108 77.1328L91.7112 75.5325ZM141.372 38.308L91.7112 75.5325L92.9108 77.1328L142.572 39.9083L141.372 38.308ZM148.991 256.181C147.508 258.253 144.611 258.7 142.572 257.172L141.372 258.772C144.309 260.973 148.482 260.329 150.618 257.345L148.991 256.181ZM154.312 253.446C152.201 253.446 150.22 254.464 148.991 256.181L150.618 257.345C151.471 256.153 152.847 255.446 154.312 255.446V253.446ZM218.246 253.446H154.312V255.446H218.246V253.446ZM223.246 248.446C223.246 251.207 221.008 253.446 218.246 253.446V255.446C222.112 255.446 225.246 252.312 225.246 248.446H223.246ZM223.246 248.166V248.446H225.246V248.166H223.246ZM218.246 243.166C221.008 243.166 223.246 245.404 223.246 248.166H225.246C225.246 244.3 222.112 241.166 218.246 241.166V243.166ZM161.794 243.166H218.246V241.166H161.794V243.166ZM157.596 241.767C158.807 242.675 160.28 243.166 161.794 243.166V241.166C160.713 241.166 159.661 240.815 158.795 240.167L157.596 241.767ZM105.509 202.724L157.596 241.767L158.795 240.167L106.709 201.124L105.509 202.724ZM98.4442 203.815C100.077 201.534 103.265 201.042 105.509 202.724L106.709 201.124C103.567 198.769 99.1031 199.458 96.8179 202.651L98.4442 203.815ZM91.8438 213.036L98.4442 203.815L96.8179 202.651L90.2175 211.872L91.8438 213.036ZM92.9108 219.947C90.7355 218.317 90.2616 215.247 91.8438 213.036L90.2175 211.872C88.0023 214.967 88.6658 219.265 91.7112 221.548L92.9108 219.947ZM142.572 257.172L92.9108 219.947L91.7112 221.548L141.372 258.772L142.572 257.172ZM622.629 257.345C624.765 260.329 628.937 260.973 631.874 258.772L630.675 257.172C628.635 258.7 625.738 258.253 624.255 256.181L622.629 257.345ZM618.934 255.446C620.4 255.446 621.776 256.153 622.629 257.345L624.255 256.181C623.026 254.464 621.045 253.446 618.934 253.446V255.446ZM555 255.446H618.934V253.446H555V255.446ZM548 248.446C548 252.312 551.134 255.446 555 255.446V253.446C552.239 253.446 550 251.207 550 248.446H548ZM548 248.166V248.446H550V248.166H548ZM555 241.166C551.134 241.166 548 244.3 548 248.166H550C550 245.404 552.239 243.166 555 243.166V241.166ZM611.452 241.166H555V243.166H611.452V241.166ZM614.451 240.166C613.586 240.815 612.534 241.166 611.452 241.166V243.166C612.966 243.166 614.439 242.675 615.651 241.767L614.451 240.166ZM666.538 201.124L614.451 240.166L615.651 241.767L667.737 202.724L666.538 201.124ZM676.429 202.651C674.143 199.458 669.68 198.769 666.538 201.124L667.737 202.724C669.981 201.042 673.17 201.534 674.802 203.815L676.429 202.651ZM683.029 211.872L676.429 202.651L674.802 203.815L681.403 213.036L683.029 211.872ZM681.535 221.548C684.581 219.265 685.244 214.967 683.029 211.872L681.403 213.036C682.985 215.247 682.511 218.317 680.336 219.947L681.535 221.548ZM631.874 258.772L681.535 221.548L680.336 219.947L630.675 257.172L631.874 258.772Z" fill="url(#paint14_linear_155_22)" mask="url(#path-14-inside-5_155_22)"/>
<path d="M246.913 133.423V138.414V147.13V161.258V171.996C258.941 171.996 264.082 165.724 264.082 157.867C264.082 150.418 264.082 150.418 264.082 112.69L252.054 123.864L246.913 128.433L238.26 136.304L216.513 112.719C204.485 112.719 199.344 119.325 199.344 126.847C199.344 134.718 199.344 134.718 199.344 172.025L216.513 156.703V146.722V138.007V123.879L235.447 143.827L246.913 133.423ZM317.975 172.054C336.793 172.039 335.027 162.145 335.027 156.733L288.176 156.762V146.853H299.04L306.412 139.069L288.176 139.083V124.024L324.28 123.995L335.027 112.821C335.027 112.821 301.368 112.85 288.176 112.85C275.547 112.864 270.988 119.455 270.988 126.992C270.988 134.777 270.988 134.777 270.988 172.083L317.975 172.054ZM406.788 153.735L362.614 112.719L342.05 112.733V123.908V138.021V156.718V157.576V172.039L359.239 156.718V124.402L395.226 156.689L362.614 156.718L345.562 172.039L389.619 172.01C409.135 171.996 406.788 160.836 406.788 153.735ZM413.811 178.674L430.98 163.28V146.533V137.818V125.377L413.811 141.368V178.674ZM430.98 117.593V112.515C418.37 112.53 413.811 119.121 413.811 126.658C413.811 129.961 413.811 129.611 413.811 133.423L430.98 117.593ZM485.552 127.807V137.861V146.577V156.136L455.172 156.151V146.591V137.876V112.413L437.867 112.428C437.867 149.909 437.867 149.909 437.867 157.853C437.867 165.303 443.008 171.981 455.172 171.981L485.552 171.952C497.716 171.952 502.857 165.259 502.857 157.824C502.857 149.865 502.857 149.865 502.857 112.399L485.552 127.807ZM557.293 133.263V138.254V146.97V161.098V171.835C569.341 171.835 574.482 165.564 574.482 157.707C574.482 150.258 574.482 150.258 574.482 112.53L562.434 123.704L557.293 128.273L548.66 136.144L526.913 112.559C514.885 112.559 509.744 119.164 509.744 126.687C509.744 134.558 509.744 134.558 509.744 171.865L526.913 156.543V146.562V137.847V123.719L545.847 143.681L557.293 133.263Z" fill="#28F4D5"/>
<defs>
<linearGradient id="paint0_linear_155_22" x1="709.991" y1="92.0222" x2="709.991" y2="200.83" gradientUnits="userSpaceOnUse">
<stop offset="0.015"/>
<stop offset="0.495" stop-color="#2A1C46"/>
<stop offset="1"/>
</linearGradient>
<linearGradient id="paint1_linear_155_22" x1="387.371" y1="92.0222" x2="387.371" y2="200.83" gradientUnits="userSpaceOnUse">
<stop stop-color="#06C7C7"/>
<stop offset="1" stop-color="#800894" stop-opacity="0"/>
</linearGradient>
<linearGradient id="paint2_linear_155_22" x1="387.371" y1="123.57" x2="387.371" y2="169.282" gradientUnits="userSpaceOnUse">
<stop stop-color="#151F2D"/>
<stop offset="1" stop-color="#3E1556"/>
</linearGradient>
<linearGradient id="paint3_linear_155_22" x1="387.371" y1="123.57" x2="387.371" y2="169.282" gradientUnits="userSpaceOnUse">
<stop/>
<stop offset="1" stop-color="#0EF1FF"/>
</linearGradient>
<linearGradient id="paint4_linear_155_22" x1="387.63" y1="43.0906" x2="387.72" y2="216.604" gradientUnits="userSpaceOnUse">
<stop offset="0.04"/>
<stop offset="0.52" stop-color="#1B476F"/>
<stop offset="1" stop-color="#0F0215"/>
</linearGradient>
<linearGradient id="paint5_linear_155_22" x1="387.63" y1="43.0906" x2="387.63" y2="249.762" gradientUnits="userSpaceOnUse">
<stop stop-color="#24E5FF"/>
<stop offset="0.64" stop-color="#07121F"/>
<stop offset="0.99" stop-color="#39011C"/>
</linearGradient>
<linearGradient id="paint6_linear_155_22" x1="387.371" y1="57.8989" x2="387.371" y2="236.241" gradientUnits="userSpaceOnUse">
<stop offset="0.035" stop-color="#0E1E24"/>
<stop offset="0.57" stop-color="#240D43"/>
<stop offset="1" stop-color="#071A2C"/>
</linearGradient>
<linearGradient id="paint7_linear_155_22" x1="389.253" y1="10.255" x2="389.253" y2="382.714" gradientUnits="userSpaceOnUse">
<stop stop-color="#4893D9"/>
<stop offset="0.354219" stop-color="#030404"/>
<stop offset="0.95" stop-color="#A10DA4"/>
</linearGradient>
<linearGradient id="paint8_linear_155_22" x1="389.253" y1="80.4331" x2="389.253" y2="178.296" gradientUnits="userSpaceOnUse">
<stop stop-color="#00C9BD"/>
<stop offset="1" stop-color="#118780" stop-opacity="0"/>
</linearGradient>
<linearGradient id="paint9_linear_155_22" x1="216.084" y1="0" x2="216.084" y2="124.904" gradientUnits="userSpaceOnUse">
<stop stop-color="#00C9BD"/>
<stop offset="1" stop-color="#118780" stop-opacity="0"/>
</linearGradient>
<linearGradient id="paint10_linear_155_22" x1="386.994" y1="128.721" x2="386.994" y2="164.132" gradientUnits="userSpaceOnUse">
<stop offset="0.01" stop-color="#6A2276"/>
<stop offset="0.54" stop-color="#010002" stop-opacity="0.98"/>
<stop offset="0.96" stop-color="#590566" stop-opacity="0.98"/>
</linearGradient>
<linearGradient id="paint11_linear_155_22" x1="386.994" y1="128.721" x2="386.994" y2="164.132" gradientUnits="userSpaceOnUse">
<stop stop-color="#137A9A" stop-opacity="0"/>
<stop offset="1" stop-color="#0B98C5"/>
</linearGradient>
<linearGradient id="paint12_linear_155_22" x1="387.5" y1="243.667" x2="387.5" y2="254.924" gradientUnits="userSpaceOnUse">
<stop stop-color="#320A1B"/>
<stop offset="1" stop-color="#1F668E"/>
</linearGradient>
<linearGradient id="paint13_linear_155_22" x1="386.623" y1="38" x2="386.623" y2="259.08" gradientUnits="userSpaceOnUse">
<stop offset="0.03" stop-color="#0D1719"/>
<stop offset="0.315" stop-color="#0E1112"/>
<stop offset="0.695" stop-color="#121827" stop-opacity="0.9814"/>
<stop offset="1" stop-color="#23A5A5" stop-opacity="0.96"/>
</linearGradient>
<linearGradient id="paint14_linear_155_22" x1="386.623" y1="38" x2="386.623" y2="259.08" gradientUnits="userSpaceOnUse">
<stop stop-color="#0F789A"/>
<stop offset="1" stop-color="#370E2E"/>
</linearGradient>
</defs>
</svg>
